<?xml version="1.0" standalone="no"?>
<!DOCTYPE svg PUBLIC "-//W3C//DTD SVG 1.1//EN" "http://www.w3.org/Graphics/SVG/1.1/DTD/svg11.dtd" >
<svg xmlns="http://www.w3.org/2000/svg" xmlns:xlink="http://www.w3.org/1999/xlink" version="1.1">
<metadata>
Created by FontForge 20150318 at Tue Jun  9 09:27:01 2015
 By uniteet7
(c) 1993, 1994, 2001, 2002 Adobe Systems Incorporated. All rights reserved.
</metadata>
<defs>
<font id="ITCAvantGardeStdXLtCn" horiz-adv-x="500" >
  <font-face 
    font-family="ITCAvantGardeStdXLtCn"
    font-weight="275"
    font-stretch="condensed"
    units-per-em="1000"
    panose-1="1 11 3 6 2 2 2 2 2 4"
    ascent="740"
    descent="-260"
    x-height="530"
    cap-height="740"
    bbox="-139 -274 1072 942"
    underline-thickness="50"
    underline-position="-50"
    unicode-range="U+0020-FB02"
  />
<missing-glyph 
d="M0 0v700h500v-700h-500zM250 395l170 255h-340zM280 350l170 -255v510zM80 50h340l-170 255zM50 605v-510l170 255z" />
    <glyph glyph-name="f_i" unicode="fi" horiz-adv-x="355" 
d="M257 504h-142v-504h-28v504h-67v26h67v51q0 48 14 83t31 51.5t40 26t33 10.5t17 1v-26q-107 -9 -107 -147v-50h170v-530h-28v504zM285 649h-28v91h28v-91z" />
    <glyph glyph-name="f_l" unicode="fl" horiz-adv-x="355" 
d="M257 504h-142v-504h-28v504h-67v26h67v51q0 48 14 83t31 51.5t40 26t33 10.5t17 1v-26q-107 -9 -107 -147v-50h142v210h28v-740h-28v504z" />
    <glyph glyph-name=".notdef" 
d="M0 0v700h500v-700h-500zM250 395l170 255h-340zM280 350l170 -255v510zM80 50h340l-170 255zM50 605v-510l170 255z" />
    <glyph glyph-name=".null" horiz-adv-x="0" 
 />
    <glyph glyph-name="nonmarkingreturn" horiz-adv-x="333" 
 />
    <glyph glyph-name="space" unicode=" " horiz-adv-x="220" 
 />
    <glyph glyph-name="exclam" unicode="!" horiz-adv-x="231" 
d="M130 740v-574h-30v574h30zM130 81v-81h-30v81h30z" />
    <glyph glyph-name="quotedbl" unicode="&#x22;" horiz-adv-x="239" 
d="M77 475h-30v265h30v-265zM192 475h-30v265h30v-265z" />
    <glyph glyph-name="numbersign" unicode="#" 
d="M333 271l-34 -240h-24l33 240h-143l-33 -240h-25l34 240h-131v23h134l19 137h-131v23h135l31 221h24l-31 -221h143l31 221h24l-31 -221h132v-23h-136l-19 -137h133v-23h-135zM311 294l20 137h-143l-20 -137h143z" />
    <glyph glyph-name="dollar" unicode="$" 
d="M268 792v-80q74 -10 111 -56.5t41 -105.5h-27q-9 69 -52 102t-86 33q-52 0 -92 -40t-40 -104q0 -36 11 -61.5t36.5 -41.5t46 -24t59.5 -20q23 -7 36.5 -12t40 -20t42 -33t28.5 -50t13 -72q0 -71 -47.5 -126.5t-120.5 -60.5v-95h-30v95q-72 7 -120.5 59t-52.5 130h27
q8 -79 56.5 -120.5t106.5 -41.5q63 0 107 47.5t44 113.5q0 42 -13 71t-42.5 48t-51.5 27.5t-66 21.5q-140 41 -140 165q0 68 40 115t105 56v80h30z" />
    <glyph glyph-name="percent" unicode="%" horiz-adv-x="719" 
d="M22 590v1q0 70 46.5 116t116.5 46q71 0 117 -46.5t46 -116.5t-46 -116.5t-117 -46.5t-117 46.5t-46 116.5zM50 590v-1q0 -60 37.5 -98.5t97.5 -38.5t97.5 39t37.5 99t-37.5 99t-97.5 39t-97.5 -39t-37.5 -99zM371 150v1q0 70 46.5 116t116.5 46t116.5 -46.5t46.5 -116.5
t-46.5 -116.5t-116.5 -46.5t-116.5 46.5t-46.5 116.5zM399 150v-1q0 -60 37.5 -98.5t97.5 -38.5t97.5 39t37.5 99t-37.5 99t-97.5 39t-97.5 -39t-37.5 -99zM603 740l-457 -740h-32l457 740h32z" />
    <glyph glyph-name="ampersand" unicode="&#x26;" horiz-adv-x="620" 
d="M536 467h30l-122 -261l172 -197l-19 -20l-164 188q-2 -4 -14.5 -29.5t-21 -41.5t-27.5 -41t-37.5 -40t-47.5 -26.5t-61 -11.5q-80 0 -132 63t-52 144q0 152 177 231q-6 8 -26.5 32t-27 33.5t-18 29t-15.5 38.5t-5 42q0 61 41 107t102 46t102 -44.5t41 -104.5
q0 -106 -151 -188l165 -188zM269 726h-1q-54 0 -83.5 -37t-29.5 -85q0 -18 4 -35.5t7 -27.5t16 -28.5t16 -23t22.5 -27t21.5 -24.5q74 39 106.5 76.5t32.5 90.5q0 48 -31 84.5t-81 36.5zM411 200l-176 204q-95 -47 -129.5 -98t-35.5 -113q1 -72 43.5 -125.5t112.5 -53.5
q16 0 32 4t28.5 10t25.5 17t21.5 19.5t19 24t16 24t14 25.5l11.5 23t10 22t7 17z" />
    <glyph glyph-name="quotesingle" unicode="'" horiz-adv-x="222" 
d="M126 475h-30v265h30v-265z" />
    <glyph glyph-name="parenleft" unicode="(" horiz-adv-x="299" 
d="M278 753v-35q-73 -71 -120.5 -193.5t-47.5 -283.5q0 -290 168 -480v-35q-94 89 -147 222t-53 293q0 157 55 296.5t145 215.5z" />
    <glyph glyph-name="parenright" unicode=")" horiz-adv-x="299" 
d="M21 -274v35q73 71 120.5 193.5t47.5 283.5q0 290 -168 480v35q94 -89 147 -222t53 -293q0 -157 -55 -296.5t-145 -215.5z" />
    <glyph glyph-name="asterisk" unicode="*" horiz-adv-x="312" 
d="M170 740v-123l106 62l14 -25l-105 -61l107 -63l-14 -24l-108 61v-123h-29v124l-106 -62l-15 25l107 62l-107 60l15 26l106 -62v123h29z" />
    <glyph glyph-name="plus" unicode="+" 
d="M264 501v-237h211v-28h-211v-236h-28v236h-211v28h211v237h28z" />
    <glyph glyph-name="comma" unicode="," horiz-adv-x="245" 
d="M156 82l-63 -154h-32l63 154h32z" />
    <glyph glyph-name="hyphen" unicode="-" horiz-adv-x="220" 
d="M15 291h190v-29h-190v29z" />
    <glyph glyph-name="period" unicode="." horiz-adv-x="245" 
d="M138 81v-81h-30v81h30z" />
    <glyph glyph-name="slash" unicode="/" horiz-adv-x="278" 
d="M-53 -100l351 840h33l-351 -840h-33z" />
    <glyph glyph-name="zero" unicode="0" 
d="M41 222v296q0 104 61 169.5t148 65.5t148 -65.5t61 -169.5v-296q0 -104 -61 -169.5t-148 -65.5t-148 65.5t-61 169.5zM71 518v-296q0 -57 18 -100t47 -65t57.5 -32.5t56.5 -10.5t56.5 10.5t57.5 32.5t47 65t18 100v296q0 57 -18 100t-47 65t-57.5 32.5t-56.5 10.5
t-56.5 -10.5t-57.5 -32.5t-47 -65t-18 -100z" />
    <glyph glyph-name="one" unicode="1" 
d="M240 0v713h-128v27h158v-740h-30z" />
    <glyph glyph-name="two" unicode="2" 
d="M35 0v27q70 83 210 247q3 4 26.5 31.5t28.5 33.5t24 30t24.5 34.5t18 32.5t16.5 37t8 36t4 42q0 84 -42 129.5t-113 45.5q-73 0 -117 -52t-51 -160h-27q3 119 65 183q55 56 136 56q80 0 129.5 -56.5t49.5 -142.5q0 -56 -28 -116t-103 -148q-74 -87 -224 -263h355v-27
h-390z" />
    <glyph glyph-name="three" unicode="3" 
d="M127 585h-27q4 82 50.5 125t115.5 43q70 0 114 -46.5t44 -126.5q0 -54 -32 -96.5t-94 -59.5q44 -14 76 -38t48.5 -54t23.5 -59.5t7 -61.5q0 -102 -54.5 -163t-149.5 -61q-51 0 -97 28t-74 78q-27 49 -30 122h27q2 -99 54.5 -150t122.5 -51q82 0 126.5 52.5t44.5 148.5
q0 82 -54.5 138.5t-147.5 56.5h-19v27h22q83 0 126.5 38.5t43.5 105.5q0 66 -34 105.5t-96 39.5q-67 0 -101 -38t-36 -103z" />
    <glyph glyph-name="four" unicode="4" 
d="M351 0v144h-310v26l304 570h36v-569h58v-27h-58v-144h-30zM71 171h280v528z" />
    <glyph glyph-name="five" unicode="5" 
d="M145 740h274v-27h-250l-45 -279q52 58 136 58q86 0 140 -74.5t54 -176.5q0 -110 -54 -182t-143 -72q-77 0 -139 59t-72 171h27q11 -96 63 -149.5t119 -53.5q80 0 124.5 63t44.5 161q0 100 -47.5 163.5t-117.5 63.5q-91 0 -149 -86l-21 7z" />
    <glyph glyph-name="six" unicode="6" 
d="M317 740h33l-158 -227q-8 -11 -26.5 -33t-27.5 -34q53 43 119 43q80 0 138 -64.5t58 -177.5q0 -119 -57 -189.5t-147 -70.5q-96 0 -152 79q-50 68 -50 168q0 116 78 228zM77 229v-1q0 -100 50 -157t123 -57q80 0 126.5 62.5t46.5 170.5q0 96 -46 155.5t-127 59.5
q-79 0 -126 -61.5t-47 -171.5z" />
    <glyph glyph-name="seven" unicode="7" 
d="M70 740h365v-27l-306 -713h-29l306 713h-336v27z" />
    <glyph glyph-name="eight" unicode="8" 
d="M87 579v1q0 70 48 121.5t115 51.5q68 0 115.5 -50.5t47.5 -123.5q0 -51 -27.5 -95.5t-71.5 -64.5q62 -21 101.5 -78.5t40.5 -131.5q-2 -93 -61.5 -157.5t-144.5 -64.5t-144.5 64.5t-61.5 157.5q1 74 40.5 131t101.5 79q-44 20 -71.5 64.5t-27.5 95.5zM117 578v-1
q0 -61 39.5 -103.5t96.5 -42.5q53 0 91.5 43t38.5 104q0 62 -39.5 105t-96.5 43q-53 0 -91.5 -43t-38.5 -105zM74 209v-1q0 -81 51.5 -137.5t124.5 -56.5t124.5 57t51.5 138t-51.5 138t-124.5 57t-124.5 -57t-51.5 -138z" />
    <glyph glyph-name="nine" unicode="9" 
d="M183 0h-33l158 227q8 11 26.5 33t27.5 34q-28 -22 -61 -34q-29 -9 -58 -9q-80 0 -138 64.5t-58 177.5q0 119 57 189.5t147 70.5q96 0 152 -79q50 -68 50 -168q0 -116 -78 -228zM423 511v1q0 100 -50 157t-123 57q-80 0 -126.5 -62.5t-46.5 -170.5q0 -96 46 -155.5
t127 -59.5q79 0 126 61.5t47 171.5z" />
    <glyph glyph-name="colon" unicode=":" horiz-adv-x="245" 
d="M138 530v-81h-30v81h30zM138 81v-81h-30v81h30z" />
    <glyph glyph-name="semicolon" unicode=";" horiz-adv-x="245" 
d="M153 530v-81h-30v81h30zM156 82l-63 -154h-32l63 154h32z" />
    <glyph glyph-name="less" unicode="&#x3c;" 
d="M25 267l450 235v-31l-417 -220l417 -220v-31l-450 235v32z" />
    <glyph glyph-name="equal" unicode="=" 
d="M25 361h450v-28h-450v28zM25 167h450v-28h-450v28z" />
    <glyph glyph-name="greater" unicode="&#x3e;" 
d="M25 31l417 220l-417 220v31l450 -235v-32l-450 -235v31z" />
    <glyph glyph-name="question" unicode="?" horiz-adv-x="464" 
d="M251 166h-29q1 44 4 67.5t22.5 64.5t56.5 80q4 5 21.5 25t22 26t16.5 23t16 28t8.5 28.5t4.5 35.5q0 73 -44.5 125.5t-112.5 52.5q-61 0 -108 -35.5t-57 -113.5q-2 -20 -2 -30h-30q0 9 2 27q8 65 43.5 108.5t73 59t75.5 15.5q77 0 133.5 -60t56.5 -151q0 -37 -18.5 -75
t-36 -59t-52.5 -58q-31 -34 -47 -72.5t-17.5 -58t-1.5 -53.5zM251 81v-81h-29v81h29z" />
    <glyph glyph-name="at" unicode="@" horiz-adv-x="732" 
d="M648 187h25q-40 -98 -124.5 -149t-170.5 -51q-142 0 -239.5 110t-97.5 268q0 161 99 274.5t244 113.5q56 0 109.5 -20.5t98 -58t72 -98.5t27.5 -135q0 -69 -23.5 -126t-58 -88.5t-68.5 -48.5t-60 -17q-13 0 -26 3t-29.5 21.5t-16.5 50.5q-45 -71 -114 -71
q-14 0 -28.5 5.5t-31 18.5t-27 40.5t-10.5 65.5q0 105 58.5 193t131.5 88q40 0 61 -20t35 -60l19 64h27l-86 -272q-11 -44 -11 -51q-2 -50 49 -50q25 0 55.5 16.5t59 46.5t47.5 80t19 110q0 70 -24.5 126.5t-65.5 90.5t-89 52t-98 18q-131 0 -224 -102t-93 -260
q0 -156 91 -254t214 -98q81 0 155.5 41t118.5 133zM226 295v-1q0 -56 21 -79.5t47 -23.5q93 0 132 133l10 26q9 26 13.5 40.5t10 36.5t5.5 35q-1 45 -26 66.5t-52 21.5q-56 0 -108.5 -77t-52.5 -178z" />
    <glyph glyph-name="A" unicode="A" horiz-adv-x="460" 
d="M104 264l-77 -264h-31l216 740h36l216 -740h-31l-77 264h-252zM346 291l-116 422l-116 -422h232z" />
    <glyph glyph-name="B" unicode="B" horiz-adv-x="464" 
d="M70 0v740h112q89 0 129 -27q72 -45 72 -159q0 -36 -8.5 -64.5t-24.5 -47.5t-28 -29t-30 -21q42 -14 70.5 -41t40 -59.5t15.5 -54t4 -40.5q-1 -131 -98 -178q-39 -19 -113 -19h-141zM100 713v-312h108q57 0 84 19q61 43 61 138q0 46 -17.5 81.5t-41.5 51.5q-33 22 -111 22
h-83zM100 374v-347h112q65 0 100 16q79 35 80 154q0 54 -22.5 97t-58.5 62q-33 18 -113 18h-98z" />
    <glyph glyph-name="C" unicode="C" horiz-adv-x="520" 
d="M473 214h27q0 -88 -54.5 -157.5t-155.5 -69.5q-117 0 -183.5 100.5t-66.5 282.5q0 174 62 278.5t188 104.5q100 0 155 -74.5t55 -174.5h-27q0 32 -8.5 67t-28 71.5t-57.5 60t-89 23.5q-220 0 -220 -367q0 -167 60.5 -256t159.5 -89q91 0 135 59t48 141z" />
    <glyph glyph-name="D" unicode="D" horiz-adv-x="565" 
d="M70 0v740h145q83 0 146 -22t104 -84q60 -89 60 -264q0 -95 -18.5 -164.5t-46.5 -108.5t-71.5 -61.5t-83 -29t-90.5 -6.5h-145zM100 713v-686h105q156 0 223 77t67 266q0 181 -62 260q-65 83 -228 83h-105z" />
    <glyph glyph-name="E" unicode="E" horiz-adv-x="460" 
d="M70 0v740h340v-27h-310v-327h310v-27h-310v-332h310v-27h-340z" />
    <glyph glyph-name="F" unicode="F" horiz-adv-x="410" 
d="M70 0v740h307v-27h-277v-327h277v-27h-277v-359h-30z" />
    <glyph glyph-name="G" unicode="G" horiz-adv-x="612" 
d="M553 504h-27q-4 76 -43 136q-57 86 -163 86q-111 0 -180.5 -95.5t-69.5 -260.5q0 -175 71 -265.5t179 -90.5q129 0 182 113q38 81 38 210h-256v27h286q0 -60 -2 -90q-3 -37 -10 -72t-25 -75.5t-43.5 -70t-69.5 -49.5t-100 -20q-136 0 -208 108t-72 275q0 172 78 277.5
t202 105.5q108 0 167.5 -73.5t65.5 -175.5z" />
    <glyph glyph-name="H" unicode="H" horiz-adv-x="511" 
d="M100 0h-30v740h30v-354h311v354h30v-740h-30v359h-311v-359z" />
    <glyph glyph-name="I" unicode="I" horiz-adv-x="170" 
d="M70 0v740h30v-740h-30z" />
    <glyph glyph-name="J" unicode="J" horiz-adv-x="384" 
d="M319 740v-528q0 -77 -15 -122q-19 -43 -43 -65q-41 -38 -96 -38q-54 0 -97.5 34.5t-58.5 98.5q-2 7 -4 21h28q2 -10 4 -15q12 -46 39 -73t48.5 -33t44.5 -6q39 1 66.5 26.5t39.5 60.5q14 42 14 111v528h30z" />
    <glyph glyph-name="K" unicode="K" horiz-adv-x="410" 
d="M70 0v740h30v-372l271 372h37l-272 -370l294 -370h-38l-292 367v-367h-30z" />
    <glyph glyph-name="L" unicode="L" horiz-adv-x="370" 
d="M70 0v740h30v-713h261v-27h-291z" />
    <glyph glyph-name="M" unicode="M" horiz-adv-x="665" 
d="M100 0h-30v740h56l216 -721l197 721h56v-740h-30v728l-199 -728h-47l-219 728v-728z" />
    <glyph glyph-name="N" unicode="N" horiz-adv-x="587" 
d="M124 740l363 -724v724h30v-740h-53l-364 724v-724h-30v740h54z" />
    <glyph glyph-name="O" unicode="O" horiz-adv-x="614" 
d="M40 370v1q0 164 70.5 273t196.5 109t196.5 -109t70.5 -274q0 -67 -14 -130.5t-43.5 -122t-83.5 -94.5t-126 -36q-126 0 -196.5 109t-70.5 274zM70 370v-1q0 -162 64.5 -258.5t172.5 -96.5t172.5 96.5t64.5 259.5t-64.5 259.5t-172.5 96.5t-172.5 -96.5t-64.5 -259.5z" />
    <glyph glyph-name="P" unicode="P" horiz-adv-x="450" 
d="M70 740h99q73 0 114 -9t77 -35q33 -24 54 -70t21 -96t-21 -96t-54 -70q-35 -26 -77 -35t-114 -9h-69v-320h-30v740zM100 713v-366h70q70 0 106.5 8t70.5 33q26 19 42 58.5t16 82.5t-16.5 83t-42.5 60q-32 24 -69.5 32.5t-106.5 8.5h-70z" />
    <glyph glyph-name="Q" unicode="Q" horiz-adv-x="620" 
d="M594 14v-27h-12q-68 0 -120 61q-24 -24 -67 -42.5t-88 -18.5q-126 0 -196.5 109t-70.5 274t70.5 274t196.5 109t196.5 -109t70.5 -274q0 -100 -26 -180t-69 -122q45 -61 115 -54zM307 726h-1q-107 0 -171.5 -96.5t-64.5 -259.5q0 -64 9 -114.5t19 -69.5q71 54 146 54
q67 0 126 -49q30 -25 93 -103q30 29 56 105.5t25 176.5q0 163 -64.5 259.5t-172.5 96.5zM307 14h1q81 0 137 55q-51 67 -86 97q-55 47 -117 47q-74 0 -135 -53q68 -146 200 -146z" />
    <glyph glyph-name="R" unicode="R" horiz-adv-x="470" 
d="M70 0v740h110q123 0 171 -31q41 -26 64 -75t23 -109q0 -90 -40 -147q-53 -75 -152 -79l153 -299h-34l-165 326h18q89 0 140 48q50 47 50 147q0 112 -69 163q-19 14 -51.5 21t-49.5 7.5t-58 0.5h-80v-713h-30z" />
    <glyph glyph-name="S" unicode="S" horiz-adv-x="457" 
d="M37 187h27q9 -91 57.5 -132t98.5 -41q72 0 121.5 47.5t49.5 128.5q0 38 -12 68.5t-26.5 48t-41.5 32t-42.5 20.5t-44.5 14q-21 6 -27.5 8t-30 11.5t-34.5 17t-30 23t-28.5 32t-17 41t-7.5 53.5q-1 90 49 142t127 52q74 0 120.5 -42.5t56.5 -130.5h-27q-5 26 -12 47
t-23 46t-45 39t-70 14q-67 0 -106.5 -44t-39.5 -116q0 -41 11 -70t37.5 -48t52.5 -30t72 -24q22 -7 35.5 -11.5t42 -20.5t45.5 -35t31.5 -53.5t14.5 -77.5q0 -93 -57 -151t-140 -58q-71 0 -127 51t-60 149z" />
    <glyph glyph-name="T" unicode="T" horiz-adv-x="394" 
d="M182 0v713h-165v27h360v-27h-165v-713h-30z" />
    <glyph glyph-name="U" unicode="U" horiz-adv-x="519" 
d="M65 740h30v-561q0 -86 47 -128q41 -37 117 -37q77 0 118 37q47 42 47 128v561h30v-555q0 -96 -50 -146q-50 -52 -144 -52q-95 0 -145 52q-50 50 -50 146v555z" />
    <glyph glyph-name="V" unicode="V" horiz-adv-x="474" 
d="M219 0l-221 740h33l206 -711l206 711h33l-221 -740h-36z" />
    <glyph glyph-name="W" unicode="W" horiz-adv-x="754" 
d="M180 0l-178 740h28l173 -717l153 717h43l153 -717l173 717h27l-177 -740h-46l-152 717l-151 -717h-46z" />
    <glyph glyph-name="X" unicode="X" horiz-adv-x="407" 
d="M6 0l183 390l-164 350h32l146 -323l146 323h32l-164 -350l183 -390h-32l-165 363l-165 -363h-32z" />
    <glyph glyph-name="Y" unicode="Y" horiz-adv-x="419" 
d="M195 0v253l-197 487h32l180 -456l179 456h32l-196 -487v-253h-30z" />
    <glyph glyph-name="Z" unicode="Z" horiz-adv-x="478" 
d="M439 722l-371 -695h390v-27h-425v17l371 696h-384v27h419v-18z" />
    <glyph glyph-name="bracketleft" unicode="[" horiz-adv-x="299" 
d="M263 -237v-30h-166v1007h166v-30h-136v-947h136z" />
    <glyph glyph-name="backslash" unicode="\" horiz-adv-x="278" 
d="M298 -100l-351 840h33l351 -840h-33z" />
    <glyph glyph-name="bracketright" unicode="]" horiz-adv-x="299" 
d="M36 -267v30h136v947h-136v30h166v-1007h-166z" />
    <glyph glyph-name="asciicircum" unicode="^" 
d="M62 375l172 365h32l172 -365h-32l-156 332l-156 -332h-32z" />
    <glyph glyph-name="underscore" unicode="_" 
d="M500 -125h-500v50h500v-50z" />
    <glyph glyph-name="grave" unicode="`" 
d="M149 746l217 -128l-13 -23l-218 128z" />
    <glyph glyph-name="a" unicode="a" horiz-adv-x="484" 
d="M414 530v-530h-28q0 102 2 133q-18 -68 -61.5 -107t-101.5 -39q-83 0 -134 80t-51 197q0 118 51 198.5t134 80.5q117 0 163 -146q-2 41 -2 133h28zM68 265v-1q0 -100 42 -175.5t117 -75.5q76 0 119 80q40 71 40 172q0 102 -40 172q-43 80 -119 80q-51 0 -88 -38t-54 -94
t-17 -120z" />
    <glyph glyph-name="b" unicode="b" horiz-adv-x="484" 
d="M70 0v740h28v-210q0 -102 -2 -133q18 68 61.5 107t101.5 39q83 0 134 -80t51 -197q0 -118 -51 -198.5t-134 -80.5q-117 0 -163 146q2 -41 2 -133h-28zM416 265v1q0 100 -42 175.5t-117 75.5q-51 0 -88 -38t-54 -94t-17 -120t17 -120t54 -94t88 -38t88 38t54 94t17 120z
" />
    <glyph glyph-name="c" unicode="c" horiz-adv-x="445" 
d="M395 167h26q-15 -84 -60.5 -132t-117.5 -48q-54 0 -95 25.5t-63.5 67t-33.5 88t-11 96.5q0 126 55 202.5t144 76.5q78 0 125 -49.5t53 -135.5h-26q-21 159 -150 159q-84 0 -127 -71q-46 -76 -46 -181q0 -114 46.5 -183t128.5 -69q61 0 100.5 40.5t51.5 113.5z" />
    <glyph glyph-name="d" unicode="d" horiz-adv-x="484" 
d="M414 740v-740h-28q0 102 2 133q-18 -68 -61.5 -107t-101.5 -39q-83 0 -134 80t-51 197q0 118 51 198.5t134 80.5q117 0 163 -146q-2 41 -2 133v210h28zM68 266v-1q0 -100 42 -175.5t117 -75.5q76 0 119 80q40 71 40 172q0 102 -40 172q-43 80 -119 80q-51 0 -88 -38
t-54 -94t-17 -120z" />
    <glyph glyph-name="e" unicode="e" horiz-adv-x="465" 
d="M428 262h-360q0 -112 46.5 -180.5t128.5 -68.5q60 0 99.5 36.5t52.5 93.5h26q-14 -67 -59 -110q-49 -46 -119 -46q-54 0 -95 25t-63.5 66.5t-33.5 88.5t-11 97q0 127 55.5 203t143.5 76q85 0 135 -68q54 -72 54 -213zM68 288h332q-3 114 -48.5 171.5t-117.5 57.5
t-118 -66.5t-48 -162.5z" />
    <glyph glyph-name="f" unicode="f" horiz-adv-x="233" 
d="M87 0v504h-67v26h67v51q0 48 14 83t31 51.5t40 26t33 10.5t17 1v-26q-107 -9 -107 -147v-50h107v-26h-107v-504h-28z" />
    <glyph glyph-name="g" unicode="g" horiz-adv-x="484" 
d="M414 530v-517q0 -120 -42 -174q-50 -65 -142 -65q-17 0 -37 4t-45 16t-44.5 31t-34 52t-15.5 76h26q4 -68 38 -106q43 -47 116 -47q152 0 152 197q0 85 2 136q-18 -68 -61.5 -107t-101.5 -39q-83 0 -134 80t-51 197q0 118 51 198.5t134 80.5q117 0 163 -146q-2 41 -2 133
h28zM68 265v-1q0 -100 42 -175.5t117 -75.5q76 0 119 80q40 71 40 172q0 102 -40 172q-43 80 -119 80q-51 0 -88 -38t-54 -94t-17 -120z" />
    <glyph glyph-name="h" unicode="h" horiz-adv-x="495" 
d="M70 0v740h28v-210q0 -73 -3 -116q22 68 69 98.5t104 30.5q76 0 119 -49q42 -47 42 -169v-325h-28v317q0 60 -6.5 95.5t-26.5 62.5q-31 42 -99 42q-81 0 -127 -61q-24 -32 -34 -73.5t-10 -117.5v-265h-28z" />
    <glyph glyph-name="i" unicode="i" horiz-adv-x="178" 
d="M75 650v90h28v-90h-28zM75 0v530h28v-530h-28z" />
    <glyph glyph-name="j" unicode="j" horiz-adv-x="173" 
d="M70 648v92h28v-92h-28zM98 530v-524q0 -33 -0.5 -51.5t-5.5 -50.5t-13.5 -51t-27 -37.5t-44.5 -25.5l-15 -3v30q4 1 10 3q42 13 55 57t13 129v524h28z" />
    <glyph glyph-name="k" unicode="k" horiz-adv-x="365" 
d="M70 0v740h28v-442l212 232h33l-212 -233l230 -297h-34l-229 296v-296h-28z" />
    <glyph glyph-name="l" unicode="l" horiz-adv-x="178" 
d="M75 0v740h28v-740h-28z" />
    <glyph glyph-name="m" unicode="m" horiz-adv-x="742" 
d="M70 0v530h28q0 -64 -3 -102q39 115 151 115q63 0 103 -44q28 -31 31 -81q18 58 51 87q45 38 104 38q90 0 126 -78q15 -33 15 -166v-299h-28v305q0 97 -9 131q-9 38 -38.5 59.5t-67.5 21.5q-70 0 -111 -62q-35 -54 -35 -162v-293h-28v301q0 95 -9 134q-9 38 -38.5 60
t-66.5 22q-69 0 -111 -60q-36 -54 -36 -168v-289h-28z" />
    <glyph glyph-name="n" unicode="n" horiz-adv-x="495" 
d="M70 0v530h28q0 -73 -3 -116q22 67 71.5 98t101.5 31q75 0 118 -48t43 -149v-346h-28v337q0 25 -1.5 44.5t-9 46.5t-21 45t-39 31t-61.5 13q-80 0 -125.5 -58.5t-45.5 -170.5v-288h-28z" />
    <glyph glyph-name="o" unicode="o" horiz-adv-x="489" 
d="M40 265v1q0 121 51.5 199t153.5 78t153 -78t51 -200t-51 -200t-153 -78t-153.5 78t-51.5 200zM68 265v-1q0 -116 45 -183.5t132 -67.5q86 0 131 67.5t45 184.5t-45 184.5t-131 67.5q-87 0 -132 -67.5t-45 -184.5z" />
    <glyph glyph-name="p" unicode="p" horiz-adv-x="484" 
d="M70 -213v743h28q0 -92 -2 -133q46 146 163 146q83 0 134 -80.5t51 -198.5q0 -117 -51 -197t-134 -80q-58 0 -101.5 39t-61.5 107q2 -31 2 -133v-213h-28zM416 265v1q0 100 -42 175.5t-117 75.5q-76 0 -119 -80q-40 -70 -40 -172q0 -101 40 -172q43 -80 119 -80
q51 0 88 38t54 94t17 120z" />
    <glyph glyph-name="q" unicode="q" horiz-adv-x="484" 
d="M414 530v-743h-28v213q0 102 2 133q-18 -68 -61.5 -107t-101.5 -39q-83 0 -134 80t-51 197q0 118 51 198.5t134 80.5q117 0 163 -146q-2 41 -2 133h28zM68 265v-1q0 -100 42 -175.5t117 -75.5q76 0 119 80q40 71 40 172q0 102 -40 172q-43 80 -119 80q-51 0 -88 -38
t-54 -94t-17 -120z" />
    <glyph glyph-name="r" unicode="r" horiz-adv-x="245" 
d="M70 0v530h28q0 -100 -3 -138q11 45 30 76.5t42 46.5t40 21t33 7v-26h-5q-44 0 -90.5 -63.5t-46.5 -185.5v-268h-28z" />
    <glyph glyph-name="s" unicode="s" horiz-adv-x="379" 
d="M319 405h-26q0 112 -104 112q-42 0 -70 -29t-28 -74q0 -49 28.5 -77t82.5 -44q131 -39 131 -158q0 -66 -40 -107t-100 -41q-70 0 -108.5 42t-38.5 118h26q0 -66 32.5 -100t86.5 -34q52 0 83 32.5t31 85.5q0 56 -27 87.5t-86 50.5q-62 20 -95.5 51.5t-33.5 92.5
q0 59 37.5 94.5t89.5 35.5q59 0 94 -34.5t35 -103.5z" />
    <glyph glyph-name="t" unicode="t" horiz-adv-x="234" 
d="M103 0v504h-85v26h85v210h28v-210h85v-26h-85v-504h-28z" />
    <glyph glyph-name="u" unicode="u" horiz-adv-x="495" 
d="M425 530v-530h-28q0 73 3 116q-22 -67 -71.5 -98t-101.5 -31q-75 0 -118 48t-43 149v346h28v-337q0 -25 1.5 -44.5t9 -46.5t21 -45t39 -31t61.5 -13q80 0 125.5 58.5t45.5 170.5v288h28z" />
    <glyph glyph-name="v" unicode="v" horiz-adv-x="360" 
d="M362 530l-165 -530h-34l-165 530h29l153 -507l155 507h27z" />
    <glyph glyph-name="w" unicode="w" horiz-adv-x="595" 
d="M157 0l-153 530h29l140 -497l109 421h32l107 -421l143 497h27l-154 -530h-32l-107 417l-109 -417h-32z" />
    <glyph glyph-name="x" unicode="x" horiz-adv-x="314" 
d="M5 0l138 266l-138 264h28l124 -237l124 237h28l-137 -264l137 -266h-28l-124 238l-124 -238h-28z" />
    <glyph glyph-name="y" unicode="y" horiz-adv-x="372" 
d="M95 -213l71 213l-159 530h29l144 -495l159 495h27l-244 -743h-27z" />
    <glyph glyph-name="z" unicode="z" horiz-adv-x="370" 
d="M15 0v24l293 480h-277v26h309v-27l-293 -477h308v-26h-340z" />
    <glyph glyph-name="braceleft" unicode="{" horiz-adv-x="299" 
d="M254 740v-26h-36q-39 0 -50.5 -21.5t-11.5 -91.5v-181q0 -56 -20.5 -111t-60.5 -76q37 -16 59 -66t22 -114v-180q0 -73 11.5 -93.5t50.5 -20.5h36v-26h-46q-46 0 -64 29t-18 95v179q0 74 -17 117t-64 66v28q36 8 58.5 60t22.5 128v184q0 65 18 93t64 28h46z" />
    <glyph glyph-name="bar" unicode="|" 
d="M235 750h30v-1000h-30v1000z" />
    <glyph glyph-name="braceright" unicode="}" horiz-adv-x="299" 
d="M45 714v26h46q46 0 64 -29t18 -95v-179q0 -74 17 -117t64 -66v-28q-36 -8 -58.5 -60t-22.5 -128v-184q0 -65 -18 -93t-64 -28h-46v26h36q39 0 50.5 21.5t11.5 91.5v181q0 56 20.5 111t60.5 76q-37 16 -59 66t-22 114v180q0 73 -11.5 93.5t-50.5 20.5h-36z" />
    <glyph glyph-name="asciitilde" unicode="~" 
d="M433 290l17 -19q-16 -33 -39.5 -52t-49.5 -19q-32 0 -102 36q-72 37 -100 37q-57 4 -92 -62l-17 18q17 37 46.5 56t62.5 16q32 0 106 -37q70 -36 95 -36q37 0 73 62z" />
    <glyph glyph-name="uni00A0" unicode="&#xa0;" horiz-adv-x="220" 
 />
    <glyph glyph-name="exclamdown" unicode="&#xa1;" horiz-adv-x="231" 
d="M100 449v81h30v-81h-30zM100 -209v574h30v-574h-30z" />
    <glyph glyph-name="cent" unicode="&#xa2;" 
d="M275 -13h-30v91q-53 4 -91.5 31.5t-58.5 70.5t-28.5 87.5t-8.5 93.5q0 50 8.5 94.5t28.5 87.5t58.5 71t91.5 34v92h30v-92q149 -14 162 -206h-29q-3 46 -15.5 83t-47 66t-85.5 29q-86 0 -129 -70t-43 -186q0 -117 41 -187.5t131 -70.5q73 0 112.5 50t41.5 122h29
q0 -83 -50.5 -141.5t-117.5 -58.5v-91z" />
    <glyph glyph-name="sterling" unicode="&#xa3;" 
d="M357 393v-27h-203q7 -10 27 -35.5t27 -36t18 -30.5t15 -38t4 -39q0 -74 -56 -160h86q82 0 126 44t44 128q0 26 -6 50h31q5 -35 5 -49q0 -100 -52 -150q-51 -50 -148 -50h-225v27h106q59 85 59 158q0 52 -84 164q-8 11 -12 17h-94v27h76q-38 47 -38 142q0 88 56.5 153
t141.5 65q67 0 121.5 -48.5t72.5 -134.5h-31q-17 69 -63 112.5t-105 43.5q-69 -1 -115 -53.5t-48 -129.5q-2 -97 42 -150h222z" />
    <glyph glyph-name="currency" unicode="&#xa4;" 
d="M465 105l-76 76q-64 -51 -139 -51q-76 0 -139 51l-77 -76l-20 21l77 77q-56 62 -56 140q0 79 54 138l-77 77l21 21l77 -77q62 54 140 54q79 0 140 -53l76 76l22 -21l-76 -77q53 -59 53 -138t-56 -140l77 -77zM65 343v-1q0 -74 55.5 -128t129.5 -54q75 0 130 54t55 129
q0 76 -55 129.5t-130 53.5q-74 0 -129.5 -53t-55.5 -130z" />
    <glyph glyph-name="yen" unicode="&#xa5;" 
d="M440 409v-26h-162l-13 -24v-84h175v-26h-175v-249h-30v249h-175v26h175v84l-12 24h-163v26h150l-172 331h32l180 -350l179 350h32l-171 -331h150z" />
    <glyph glyph-name="brokenbar" unicode="&#xa6;" 
d="M235 675h30v-350h-30v350zM235 175h30v-350h-30v350z" />
    <glyph glyph-name="section" unicode="&#xa7;" 
d="M393 600h-26q-12 123 -108 123q-53 0 -82 -28.5t-29 -73.5q0 -43 15 -75.5t57 -58.5l105 -64q17 -10 28 -18.5t27.5 -26t25 -42.5t8.5 -56q0 -89 -72 -141q54 -44 54 -132q0 -60 -37.5 -103t-99.5 -43q-42 0 -73.5 16t-47 42.5t-23 53.5t-7.5 56h26q2 -33 11 -61
t38.5 -52.5t75.5 -24.5q48 0 77 32t31 83q4 90 -83 141l-112 66q-48 29 -67 64.5t-19 82.5q0 39 20.5 77t57.5 61q-45 48 -45 122q0 54 37.5 93.5t99.5 39.5q127 0 137 -153zM385 278v1q0 33 -13.5 58.5t-29 38.5t-46.5 32l-112 71q-30 -14 -49.5 -48t-19.5 -69
q0 -41 16.5 -72.5t66.5 -61.5l124 -73q63 43 63 123z" />
    <glyph glyph-name="dieresis" unicode="&#xa8;" horiz-adv-x="250" 
d="M79 719v-116h-29v116h29zM200 719v-116h-29v116h29z" />
    <glyph glyph-name="copyright" unicode="&#xa9;" horiz-adv-x="800" 
d="M400 751h1q162 0 271 -111t109 -270q0 -162 -111 -271.5t-270 -109.5q-161 0 -271.5 109t-110.5 272q0 159 109 270t273 111zM400 725h-1q-152 0 -252.5 -104t-100.5 -251q0 -150 102 -252.5t252 -102.5q148 0 250.5 102.5t102.5 252.5q0 148 -100.5 251.5t-252.5 103.5z
M600 451h-28q-12 63 -60 93.5t-106 30.5q-81 0 -134.5 -55t-53.5 -150q0 -103 56.5 -153.5t130.5 -50.5q14 0 29.5 2t41 11.5t46 26t37.5 48t22 74.5h28q-6 -87 -65.5 -137.5t-139.5 -50.5q-86 0 -150 59t-64 170q0 103 60 167.5t157 64.5q75 0 130 -42t63 -108z" />
    <glyph glyph-name="ordfeminine" unicode="&#xaa;" horiz-adv-x="300" 
d="M265 745v-318h-26q0 61 2 87q-13 -46 -41 -70.5t-66 -24.5q-53 0 -86.5 48.5t-33.5 117.5q0 71 33 119.5t87 48.5q77 0 107 -95q-2 32 -2 87h26zM40 586v-1q0 -31 8 -61t31 -54.5t56 -24.5q66 0 88 90q6 29 6 55t-7 50q-10 38 -33 62.5t-58 24.5q-43 0 -67 -43.5
t-24 -97.5z" />
    <glyph glyph-name="guillemotleft" unicode="&#xab;" horiz-adv-x="351" 
d="M46 276l114 194h35l-114 -194l114 -191h-35zM157 276l114 194h35l-114 -194l114 -191h-35z" />
    <glyph glyph-name="logicalnot" unicode="&#xac;" 
d="M25 361h450v-222h-28v194h-422v28z" />
    <glyph glyph-name="uni00AD" unicode="&#xad;" horiz-adv-x="220" 
d="M15 291h190v-29h-190v29z" />
    <glyph glyph-name="registered" unicode="&#xae;" horiz-adv-x="800" 
d="M400 751h1q162 0 271 -111t109 -270q0 -162 -111 -271.5t-270 -109.5q-161 0 -271.5 109t-110.5 272q0 159 109 270t273 111zM400 725h-1q-152 0 -252.5 -104t-100.5 -251q0 -150 102 -252.5t252 -102.5q148 0 250.5 102.5t102.5 252.5q0 148 -100.5 251.5t-252.5 103.5z
M235 589h185q14 0 26.5 -0.5t38 -7t43 -18t31.5 -35.5t14 -58q0 -78 -86 -109q43 -11 58.5 -35.5t18.5 -65.5q5 -72 7 -87.5t8 -26.5h-29q-7 10 -12 100q-2 28 -5.5 42.5t-16 30.5t-39.5 22t-72 6h-142v-201h-28v443zM415 563h-152v-190h140q2 0 17.5 1.5t25 3t26.5 5.5
t28 10.5t22 16.5t17 25t6 35q0 93 -130 93z" />
    <glyph glyph-name="macron" unicode="&#xaf;" 
d="M428 675v-30h-356v30h356z" />
    <glyph glyph-name="degree" unicode="&#xb0;" horiz-adv-x="400" 
d="M343 566v-1q0 -59 -41.5 -100.5t-101.5 -41.5t-101.5 41.5t-41.5 101.5t41.5 101.5t101.5 41.5t101.5 -41.5t41.5 -101.5zM85 566v-1q0 -47 33.5 -80.5t81.5 -33.5q49 0 82 33.5t33 81.5t-33 81.5t-82 33.5t-82 -33.5t-33 -81.5z" />
    <glyph glyph-name="plusminus" unicode="&#xb1;" 
d="M236 309v197h28v-197h211v-28h-211v-197h-28v197h-211v28h211zM25 0v28h450v-28h-450z" />
    <glyph glyph-name="twosuperior" unicode="&#xb2;" horiz-adv-x="351" 
d="M291 321v-25h-251v23q57 65 171 193q49 57 49 108q0 41 -22 72t-70 31q-43 0 -68.5 -33t-25.5 -90h-28q0 53 22 90q34 58 102 58q53 0 85.5 -35.5t32.5 -96.5q0 -53 -59 -122q-51 -57 -153 -173h215z" />
    <glyph glyph-name="threesuperior" unicode="&#xb3;" horiz-adv-x="350" 
d="M36 430h28q1 -60 32.5 -88.5t68.5 -28.5q46 0 73.5 31.5t27.5 80.5q0 42 -27 77t-81 35h-25v25h25q27 0 45.5 10t25.5 25.5t9 25.5t2 19q0 33 -19.5 56.5t-50.5 24.5q-32 1 -52.5 -22t-21.5 -59h-28q2 53 33 79.5t69 26.5q39 0 68.5 -29.5t29.5 -75.5q0 -62 -53 -92
q35 -15 57 -49t22 -75q0 -61 -36.5 -100t-92.5 -39q-72 0 -108 61q-21 34 -21 81z" />
    <glyph glyph-name="acute" unicode="&#xb4;" 
d="M135 618l217 128l14 -23l-218 -128z" />
    <glyph glyph-name="mu" unicode="&#xb5;" 
d="M71 -181v711h28v-317q0 -60 6.5 -95.5t26.5 -62.5q31 -42 99 -42q81 0 127 61q24 32 34 73.5t10 117.5v265h28v-530h-28q0 22 1.5 63.5t1.5 52.5q-22 -68 -69 -98.5t-104 -30.5q-47 0 -85.5 21t-50.5 63q1 -40 3 -84v-168h-28z" />
    <glyph glyph-name="paragraph" unicode="&#xb6;" 
d="M239 -126v469q-99 0 -163 49.5t-64 147.5q0 99 66 149.5t168 50.5h246v-28h-64v-838h-30v836h-129v-836h-30z" />
    <glyph glyph-name="periodcentered" unicode="&#xb7;" horiz-adv-x="245" 
d="M138 296v-81h-30v81h30z" />
    <glyph glyph-name="cedilla" unicode="&#xb8;" horiz-adv-x="179" 
d="M102 0l-24 -57q6 3 13 3q33 0 52.5 -21.5t19.5 -49.5q0 -30 -19.5 -53t-53.5 -23q-63 0 -74 62h27q9 -35 47 -35q18 0 31.5 13t14.5 36q-1 20 -14.5 32.5t-31.5 12.5q-26 0 -41 -25l-22 5l46 100h29z" />
    <glyph glyph-name="onesuperior" unicode="&#xb9;" horiz-adv-x="250" 
d="M147 740v-444h-28v419h-75v25h103z" />
    <glyph glyph-name="ordmasculine" unicode="&#xba;" horiz-adv-x="300" 
d="M17 586v1q0 73 32.5 119.5t100.5 46.5t100.5 -47t32.5 -120q0 -74 -32.5 -120.5t-100.5 -46.5t-100.5 46.5t-32.5 120.5zM43 586v-1q0 -66 27 -103t80 -37t80 37t27 104q0 70 -26 106t-81 35q-55 1 -81 -35t-26 -106z" />
    <glyph glyph-name="guillemotright" unicode="&#xbb;" horiz-adv-x="351" 
d="M191 469l114 -194l-114 -191h-35l114 191l-114 194h35zM80 469l114 -194l-114 -191h-35l114 191l-114 194h35z" />
    <glyph glyph-name="onequarter" unicode="&#xbc;" horiz-adv-x="650" 
d="M462 740l-330 -740h-29l329 740h30zM522 402l-174 -292h174v292zM157 740v-444h-28v419h-75v25h103zM550 444v-334h42v-25h-42v-85h-28v85h-208v21l203 338h33z" />
    <glyph glyph-name="onehalf" unicode="&#xbd;" horiz-adv-x="700" 
d="M157 740v-444h-28v419h-75v25h103zM462 740l-330 -740h-29l329 740h30zM637 25v-25h-251v23q57 65 171 193q49 57 49 108q0 41 -22 72t-70 31q-43 0 -68.5 -33t-25.5 -90h-28q0 53 22 90q34 58 102 58q53 0 85.5 -35.5t32.5 -96.5q0 -53 -59 -122q-51 -57 -153 -173h215z
" />
    <glyph glyph-name="threequarters" unicode="&#xbe;" horiz-adv-x="750" 
d="M622 402l-174 -292h174v292zM559 740l-330 -740h-29l329 740h30zM650 444v-334h42v-25h-42v-85h-28v85h-208v21l203 338h33zM34 430h28q1 -60 32.5 -88.5t68.5 -28.5q46 0 73.5 31.5t27.5 80.5q0 42 -27 77t-81 35h-25v25h25q27 0 45.5 10t25.5 25.5t9 25.5t2 19
q0 33 -19.5 56.5t-50.5 24.5q-32 1 -52.5 -22t-21.5 -59h-28q2 53 33 79.5t69 26.5q39 0 68.5 -29.5t29.5 -75.5q0 -62 -53 -92q35 -15 57 -49t22 -75q0 -61 -36.5 -100t-92.5 -39q-72 0 -108 61q-21 34 -21 81z" />
    <glyph glyph-name="questiondown" unicode="&#xbf;" horiz-adv-x="464" 
d="M213 449v81h29v-81h-29zM213 364h29q-1 -44 -4 -67.5t-22.5 -64.5t-56.5 -80q-4 -5 -21.5 -25t-22 -26t-16.5 -23t-16 -28t-8.5 -28.5t-4.5 -35.5q0 -73 44.5 -125t112.5 -52q61 0 108 35t57 113q2 20 2 30h30q0 -9 -2 -27q-6 -49 -27.5 -86.5t-51 -57t-58 -29
t-55.5 -9.5q-77 0 -133.5 59.5t-56.5 150.5q0 37 18.5 75t36 59t52.5 58q31 34 47 72.5t17.5 58t1.5 53.5z" />
    <glyph glyph-name="Agrave" unicode="&#xc0;" horiz-adv-x="460" 
d="M104 264l-77 -264h-31l216 740h36l216 -740h-31l-77 264h-252zM346 291l-116 422l-116 -422h232zM124 936l217 -128l-13 -23l-218 128z" />
    <glyph glyph-name="Aacute" unicode="&#xc1;" horiz-adv-x="460" 
d="M104 264l-77 -264h-31l216 740h36l216 -740h-31l-77 264h-252zM346 291l-116 422l-116 -422h232zM120 808l217 128l14 -23l-218 -128z" />
    <glyph glyph-name="Acircumflex" unicode="&#xc2;" horiz-adv-x="460" 
d="M104 264l-77 -264h-31l216 740h36l216 -740h-31l-77 264h-252zM346 291l-116 422l-116 -422h232zM244 910l156 -108h-45l-125 86l-126 -86h-45l157 108h28z" />
    <glyph glyph-name="Atilde" unicode="&#xc3;" horiz-adv-x="460" 
d="M104 264l-77 -264h-31l216 740h36l216 -740h-31l-77 264h-252zM346 291l-116 422l-116 -422h232zM382 871l18 -15q-33 -40 -90 -40q-47 0 -83 13q-44 17 -78 17q-46 0 -75 -34l-20 16q10 16 36 30t52 14q50 0 90 -14q46 -16 80 -16q38 0 70 29z" />
    <glyph glyph-name="Adieresis" unicode="&#xc4;" horiz-adv-x="460" 
d="M104 264l-77 -264h-31l216 740h36l216 -740h-31l-77 264h-252zM346 291l-116 422l-116 -422h232zM184 909v-116h-29v116h29zM305 909v-116h-29v116h29z" />
    <glyph glyph-name="Aring" unicode="&#xc5;" horiz-adv-x="460" 
d="M104 264l-77 -264h-31l216 740h36l216 -740h-31l-77 264h-252zM346 291l-116 422l-116 -422h232zM229 942h1q38 0 64.5 -27t26.5 -64q0 -38 -27 -64.5t-65 -26.5q-37 0 -64 27t-27 64q0 38 27 64.5t64 26.5zM229 916h-1q-25 0 -43.5 -19t-18.5 -45t18.5 -44.5t44.5 -18.5
q27 0 45.5 18.5t18.5 44.5t-18.5 45t-45.5 19z" />
    <glyph glyph-name="AE" unicode="&#xc6;" horiz-adv-x="780" 
d="M-6 0l374 740h362v-27h-310v-327h310v-27h-310v-332h310v-27h-340v255h-237l-129 -255h-30zM167 282h223v439z" />
    <glyph glyph-name="Ccedilla" unicode="&#xc7;" horiz-adv-x="514" 
d="M297 -12l-19 -45q6 3 13 3q33 0 52.5 -21.5t19.5 -49.5q0 -30 -19.5 -53t-53.5 -23q-63 0 -74 62h27q9 -35 47 -35q18 0 31.5 13t14.5 36q-1 20 -14.5 32.5t-31.5 12.5q-26 0 -41 -25l-22 5l41 88q-109 7 -172 107t-63 275q0 173 62.5 278t183.5 105q100 0 156.5 -75.5
t57.5 -173.5h-27q0 31 -9 66t-28.5 71.5t-58.5 60.5t-91 24q-216 0 -216 -367q0 -167 60.5 -256t159.5 -89q91 0 135 59.5t48 140.5h27q0 -85 -52 -153.5t-144 -72.5z" />
    <glyph glyph-name="Egrave" unicode="&#xc8;" horiz-adv-x="460" 
d="M70 0v740h340v-27h-310v-327h310v-27h-310v-332h310v-27h-340zM129 941l217 -128l-13 -23l-218 128z" />
    <glyph glyph-name="Eacute" unicode="&#xc9;" horiz-adv-x="460" 
d="M70 0v740h340v-27h-310v-327h310v-27h-310v-332h310v-27h-340zM115 813l217 128l14 -23l-218 -128z" />
    <glyph glyph-name="Ecircumflex" unicode="&#xca;" horiz-adv-x="460" 
d="M70 0v740h340v-27h-310v-327h310v-27h-310v-332h310v-27h-340zM244 915l156 -108h-45l-125 86l-126 -86h-45l157 108h28z" />
    <glyph glyph-name="Edieresis" unicode="&#xcb;" horiz-adv-x="460" 
d="M70 0v740h340v-27h-310v-327h310v-27h-310v-332h310v-27h-340zM184 914v-116h-29v116h29zM305 914v-116h-29v116h29z" />
    <glyph glyph-name="Igrave" unicode="&#xcc;" horiz-adv-x="170" 
d="M70 0v740h30v-740h-30zM-21 936l217 -128l-13 -23l-218 128z" />
    <glyph glyph-name="Iacute" unicode="&#xcd;" horiz-adv-x="170" 
d="M70 0v740h30v-740h-30zM-25 808l217 128l14 -23l-218 -128z" />
    <glyph glyph-name="Icircumflex" unicode="&#xce;" horiz-adv-x="170" 
d="M70 0v740h30v-740h-30zM99 910l156 -108h-45l-125 86l-126 -86h-45l157 108h28z" />
    <glyph glyph-name="Idieresis" unicode="&#xcf;" horiz-adv-x="170" 
d="M70 0v740h30v-740h-30zM39 914v-116h-29v116h29zM160 914v-116h-29v116h29z" />
    <glyph glyph-name="Eth" unicode="&#xd0;" horiz-adv-x="565" 
d="M70 384v356h145q83 0 146 -22t104 -84q60 -89 60 -264q0 -95 -18.5 -164.5t-46.5 -108.5t-71.5 -61.5t-83 -29t-90.5 -6.5h-145v357h-95v27h95zM100 713v-329h194v-27h-194v-330h105q156 0 223 77t67 266q0 181 -62 260q-65 83 -228 83h-105z" />
    <glyph glyph-name="Ntilde" unicode="&#xd1;" horiz-adv-x="587" 
d="M124 740l363 -724v724h30v-740h-53l-364 724v-724h-30v740h54zM446 871l18 -15q-33 -40 -90 -40q-47 0 -83 13q-44 17 -78 17q-46 0 -75 -34l-20 16q10 16 36 30t52 14q50 0 90 -14q46 -16 80 -16q38 0 70 29z" />
    <glyph glyph-name="Ograve" unicode="&#xd2;" horiz-adv-x="614" 
d="M40 370v1q0 164 70.5 273t196.5 109t196.5 -109t70.5 -274q0 -67 -14 -130.5t-43.5 -122t-83.5 -94.5t-126 -36q-126 0 -196.5 109t-70.5 274zM70 370v-1q0 -162 64.5 -258.5t172.5 -96.5t172.5 96.5t64.5 259.5t-64.5 259.5t-172.5 96.5t-172.5 -96.5t-64.5 -259.5z
M206 936l217 -128l-13 -23l-218 128z" />
    <glyph glyph-name="Oacute" unicode="&#xd3;" horiz-adv-x="614" 
d="M40 370v1q0 164 70.5 273t196.5 109t196.5 -109t70.5 -274q0 -67 -14 -130.5t-43.5 -122t-83.5 -94.5t-126 -36q-126 0 -196.5 109t-70.5 274zM70 370v-1q0 -162 64.5 -258.5t172.5 -96.5t172.5 96.5t64.5 259.5t-64.5 259.5t-172.5 96.5t-172.5 -96.5t-64.5 -259.5z
M192 808l217 128l14 -23l-218 -128z" />
    <glyph glyph-name="Ocircumflex" unicode="&#xd4;" horiz-adv-x="614" 
d="M40 370v1q0 164 70.5 273t196.5 109t196.5 -109t70.5 -274q0 -67 -14 -130.5t-43.5 -122t-83.5 -94.5t-126 -36q-126 0 -196.5 109t-70.5 274zM70 370v-1q0 -162 64.5 -258.5t172.5 -96.5t172.5 96.5t64.5 259.5t-64.5 259.5t-172.5 96.5t-172.5 -96.5t-64.5 -259.5z
M321 910l156 -108h-45l-125 86l-126 -86h-45l157 108h28z" />
    <glyph glyph-name="Otilde" unicode="&#xd5;" horiz-adv-x="614" 
d="M40 370v1q0 164 70.5 273t196.5 109t196.5 -109t70.5 -274q0 -67 -14 -130.5t-43.5 -122t-83.5 -94.5t-126 -36q-126 0 -196.5 109t-70.5 274zM70 370v-1q0 -162 64.5 -258.5t172.5 -96.5t172.5 96.5t64.5 259.5t-64.5 259.5t-172.5 96.5t-172.5 -96.5t-64.5 -259.5z
M459 876l18 -15q-33 -40 -90 -40q-47 0 -83 13q-44 17 -78 17q-46 0 -75 -34l-20 16q10 16 36 30t52 14q50 0 90 -14q46 -16 80 -16q38 0 70 29z" />
    <glyph glyph-name="Odieresis" unicode="&#xd6;" horiz-adv-x="614" 
d="M40 370v1q0 164 70.5 273t196.5 109t196.5 -109t70.5 -274q0 -67 -14 -130.5t-43.5 -122t-83.5 -94.5t-126 -36q-126 0 -196.5 109t-70.5 274zM70 370v-1q0 -162 64.5 -258.5t172.5 -96.5t172.5 96.5t64.5 259.5t-64.5 259.5t-172.5 96.5t-172.5 -96.5t-64.5 -259.5z
M261 914v-116h-29v116h29zM382 914v-116h-29v116h29z" />
    <glyph glyph-name="multiply" unicode="&#xd7;" 
d="M45 0l-20 21l204 230l-204 226l20 22l205 -228l205 228l20 -22l-204 -226l204 -230l-20 -21l-205 231z" />
    <glyph glyph-name="Oslash" unicode="&#xd8;" horiz-adv-x="614" 
d="M503 645l94 120h33l-113 -144q57 -102 57 -251q0 -67 -14 -130.5t-43.5 -122t-83.5 -94.5t-126 -36q-126 0 -197 111l-96 -123h-33l114 147q-55 101 -55 248q0 165 70.5 274t196.5 109q124 0 196 -108zM114 146l370 473q-63 107 -177 107q-108 0 -172.5 -96.5
t-64.5 -259.5q0 -133 44 -224zM498 597l-369 -475q63 -108 178 -108q108 0 172.5 96.5t64.5 259.5q0 135 -46 227z" />
    <glyph glyph-name="Ugrave" unicode="&#xd9;" horiz-adv-x="519" 
d="M65 740h30v-561q0 -86 47 -128q41 -37 117 -37q77 0 118 37q47 42 47 128v561h30v-555q0 -96 -50 -146q-50 -52 -144 -52q-95 0 -145 52q-50 50 -50 146v555zM123 936l217 -128l-13 -23l-218 128z" />
    <glyph glyph-name="Uacute" unicode="&#xda;" horiz-adv-x="519" 
d="M65 740h30v-561q0 -86 47 -128q41 -37 117 -37q77 0 118 37q47 42 47 128v561h30v-555q0 -96 -50 -146q-50 -52 -144 -52q-95 0 -145 52q-50 50 -50 146v555zM150 808l217 128l14 -23l-218 -128z" />
    <glyph glyph-name="Ucircumflex" unicode="&#xdb;" horiz-adv-x="519" 
d="M65 740h30v-561q0 -86 47 -128q41 -37 117 -37q77 0 118 37q47 42 47 128v561h30v-555q0 -96 -50 -146q-50 -52 -144 -52q-95 0 -145 52q-50 50 -50 146v555zM274 920l156 -108h-45l-125 86l-126 -86h-45l157 108h28z" />
    <glyph glyph-name="Udieresis" unicode="&#xdc;" horiz-adv-x="519" 
d="M65 740h30v-561q0 -86 47 -128q41 -37 117 -37q77 0 118 37q47 42 47 128v561h30v-555q0 -96 -50 -146q-50 -52 -144 -52q-95 0 -145 52q-50 50 -50 146v555zM214 914v-116h-29v116h29zM335 914v-116h-29v116h29z" />
    <glyph glyph-name="Yacute" unicode="&#xdd;" horiz-adv-x="419" 
d="M195 0v253l-197 487h32l180 -456l179 456h32l-196 -487v-253h-30zM124 808l217 128l14 -23l-218 -128z" />
    <glyph glyph-name="Thorn" unicode="&#xde;" horiz-adv-x="465" 
d="M70 0v740h30v-160h69q73 0 114 -9t77 -35q33 -24 54 -70t21 -96t-21 -96t-54 -70q-35 -26 -77 -35t-114 -9h-69v-160h-30zM100 553v-366h70q70 0 106.5 8t70.5 33q26 19 42 58.5t16 82.5t-16.5 83t-42.5 60q-32 24 -69.5 32.5t-106.5 8.5h-70z" />
    <glyph glyph-name="germandbls" unicode="&#xdf;" horiz-adv-x="475" 
d="M70 0v473q0 85 6.5 127.5t23.5 73.5q39 79 136 79q66 0 107.5 -53t41.5 -134q0 -136 -90 -190q62 -14 97 -70t35 -126q0 -87 -44 -140t-123 -53q-63 0 -109 43.5t-56 141.5l3 -172h-28zM98 473v-282h27q3 -97 42.5 -137.5t90.5 -40.5q70 0 105.5 45.5t35.5 121.5
q0 86 -52 138q-16 14 -27 20.5t-34 12.5t-56 6h-22v26h21q61 0 94.5 49t33.5 134q0 71 -34.5 116t-88.5 45q-74 0 -109 -63q-17 -29 -22 -69.5t-5 -121.5z" />
    <glyph glyph-name="agrave" unicode="&#xe0;" horiz-adv-x="484" 
d="M414 530v-530h-28q0 102 2 133q-18 -68 -61.5 -107t-101.5 -39q-83 0 -134 80t-51 197q0 118 51 198.5t134 80.5q117 0 163 -146q-2 41 -2 133h28zM68 265v-1q0 -100 42 -175.5t117 -75.5q76 0 119 80q40 71 40 172q0 102 -40 172q-43 80 -119 80q-51 0 -88 -38t-54 -94
t-17 -120zM131 746l217 -128l-13 -23l-218 128z" />
    <glyph glyph-name="aacute" unicode="&#xe1;" horiz-adv-x="484" 
d="M414 530v-530h-28q0 102 2 133q-18 -68 -61.5 -107t-101.5 -39q-83 0 -134 80t-51 197q0 118 51 198.5t134 80.5q117 0 163 -146q-2 41 -2 133h28zM68 265v-1q0 -100 42 -175.5t117 -75.5q76 0 119 80q40 71 40 172q0 102 -40 172q-43 80 -119 80q-51 0 -88 -38t-54 -94
t-17 -120zM147 618l217 128l14 -23l-218 -128z" />
    <glyph glyph-name="acircumflex" unicode="&#xe2;" horiz-adv-x="484" 
d="M414 530v-530h-28q0 102 2 133q-18 -68 -61.5 -107t-101.5 -39q-83 0 -134 80t-51 197q0 118 51 198.5t134 80.5q117 0 163 -146q-2 41 -2 133h28zM68 265v-1q0 -100 42 -175.5t117 -75.5q76 0 119 80q40 71 40 172q0 102 -40 172q-43 80 -119 80q-51 0 -88 -38t-54 -94
t-17 -120zM246 720l156 -108h-45l-125 86l-126 -86h-45l157 108h28z" />
    <glyph glyph-name="atilde" unicode="&#xe3;" horiz-adv-x="484" 
d="M414 530v-530h-28q0 102 2 133q-18 -68 -61.5 -107t-101.5 -39q-83 0 -134 80t-51 197q0 118 51 198.5t134 80.5q117 0 163 -146q-2 41 -2 133h28zM68 265v-1q0 -100 42 -175.5t117 -75.5q76 0 119 80q40 71 40 172q0 102 -40 172q-43 80 -119 80q-51 0 -88 -38t-54 -94
t-17 -120zM394 686l18 -15q-33 -40 -90 -40q-47 0 -83 13q-44 17 -78 17q-46 0 -75 -34l-20 16q10 16 36 30t52 14q50 0 90 -14q46 -16 80 -16q38 0 70 29z" />
    <glyph glyph-name="adieresis" unicode="&#xe4;" horiz-adv-x="484" 
d="M414 530v-530h-28q0 102 2 133q-18 -68 -61.5 -107t-101.5 -39q-83 0 -134 80t-51 197q0 118 51 198.5t134 80.5q117 0 163 -146q-2 41 -2 133h28zM68 265v-1q0 -100 42 -175.5t117 -75.5q76 0 119 80q40 71 40 172q0 102 -40 172q-43 80 -119 80q-51 0 -88 -38t-54 -94
t-17 -120zM186 719v-116h-29v116h29zM307 719v-116h-29v116h29z" />
    <glyph glyph-name="aring" unicode="&#xe5;" horiz-adv-x="484" 
d="M414 530v-530h-28q0 102 2 133q-18 -68 -61.5 -107t-101.5 -39q-83 0 -134 80t-51 197q0 118 51 198.5t134 80.5q117 0 163 -146q-2 41 -2 133h28zM68 265v-1q0 -100 42 -175.5t117 -75.5q76 0 119 80q40 71 40 172q0 102 -40 172q-43 80 -119 80q-51 0 -88 -38t-54 -94
t-17 -120zM231 762h1q38 0 64.5 -27t26.5 -64q0 -38 -27 -64.5t-65 -26.5q-37 0 -64 27t-27 64q0 38 27 64.5t64 26.5zM231 736h-1q-25 0 -43.5 -19t-18.5 -45t18.5 -44.5t44.5 -18.5q27 0 45.5 18.5t18.5 44.5t-18.5 45t-45.5 19z" />
    <glyph glyph-name="ae" unicode="&#xe6;" horiz-adv-x="811" 
d="M774 262h-360q0 -112 46.5 -180.5t128.5 -68.5q60 0 99.5 36.5t52.5 93.5h26q-17 -74 -64.5 -115t-113.5 -41q-128 0 -177 150l2 -137h-28l2 137q-18 -70 -61 -110t-102 -40q-83 0 -134 80t-51 197q0 118 51 198.5t134 80.5q117 0 163 -150l-2 137h28l-2 -137
q50 150 173 150q85 0 135 -68q54 -72 54 -213zM68 265v-1q0 -100 42 -175.5t117 -75.5q42 0 74.5 25t50 64.5t26 81t8.5 81.5q0 102 -40 172q-43 80 -119 80q-51 0 -88 -38t-54 -94t-17 -120zM414 288h332q-3 114 -48.5 171.5t-117.5 57.5t-119 -68q-44 -64 -47 -161z" />
    <glyph glyph-name="ccedilla" unicode="&#xe7;" horiz-adv-x="422" 
d="M248 -11l-20 -46q6 3 13 3q33 0 52.5 -21.5t19.5 -49.5q0 -30 -19.5 -53t-53.5 -23q-63 0 -74 62h27q9 -35 47 -35q18 0 31.5 13t14.5 36q-1 20 -14.5 32.5t-31.5 12.5q-26 0 -41 -25l-22 5l40 88q-52 1 -91.5 27t-61.5 67.5t-32.5 87t-10.5 94.5q0 126 55 202.5
t144 76.5q78 0 125 -49.5t53 -135.5h-26q-21 159 -150 159q-84 0 -127 -71q-46 -76 -46 -181q0 -114 46.5 -183t128.5 -69q61 0 100.5 40.5t51.5 113.5h26q-13 -76 -52.5 -123t-101.5 -55z" />
    <glyph glyph-name="egrave" unicode="&#xe8;" horiz-adv-x="465" 
d="M428 262h-360q0 -112 46.5 -180.5t128.5 -68.5q60 0 99.5 36.5t52.5 93.5h26q-14 -67 -59 -110q-49 -46 -119 -46q-54 0 -95 25t-63.5 66.5t-33.5 88.5t-11 97q0 127 55.5 203t143.5 76q85 0 135 -68q54 -72 54 -213zM68 288h332q-3 114 -48.5 171.5t-117.5 57.5
t-118 -66.5t-48 -162.5zM132 746l217 -128l-13 -23l-218 128z" />
    <glyph glyph-name="eacute" unicode="&#xe9;" horiz-adv-x="465" 
d="M428 262h-360q0 -112 46.5 -180.5t128.5 -68.5q60 0 99.5 36.5t52.5 93.5h26q-14 -67 -59 -110q-49 -46 -119 -46q-54 0 -95 25t-63.5 66.5t-33.5 88.5t-11 97q0 127 55.5 203t143.5 76q85 0 135 -68q54 -72 54 -213zM68 288h332q-3 114 -48.5 171.5t-117.5 57.5
t-118 -66.5t-48 -162.5zM118 618l217 128l14 -23l-218 -128z" />
    <glyph glyph-name="ecircumflex" unicode="&#xea;" horiz-adv-x="465" 
d="M428 262h-360q0 -112 46.5 -180.5t128.5 -68.5q60 0 99.5 36.5t52.5 93.5h26q-14 -67 -59 -110q-49 -46 -119 -46q-54 0 -95 25t-63.5 66.5t-33.5 88.5t-11 97q0 127 55.5 203t143.5 76q85 0 135 -68q54 -72 54 -213zM68 288h332q-3 114 -48.5 171.5t-117.5 57.5
t-118 -66.5t-48 -162.5zM247 720l156 -108h-45l-125 86l-126 -86h-45l157 108h28z" />
    <glyph glyph-name="edieresis" unicode="&#xeb;" horiz-adv-x="465" 
d="M428 262h-360q0 -112 46.5 -180.5t128.5 -68.5q60 0 99.5 36.5t52.5 93.5h26q-14 -67 -59 -110q-49 -46 -119 -46q-54 0 -95 25t-63.5 66.5t-33.5 88.5t-11 97q0 127 55.5 203t143.5 76q85 0 135 -68q54 -72 54 -213zM68 288h332q-3 114 -48.5 171.5t-117.5 57.5
t-118 -66.5t-48 -162.5zM187 719v-116h-29v116h29zM308 719v-116h-29v116h29z" />
    <glyph glyph-name="igrave" unicode="&#xec;" horiz-adv-x="178" 
d="M75 0v530h28v-530h-28zM-22 746l217 -128l-13 -23l-218 128z" />
    <glyph glyph-name="iacute" unicode="&#xed;" horiz-adv-x="178" 
d="M75 0v530h28v-530h-28zM-16 618l217 128l14 -23l-218 -128z" />
    <glyph glyph-name="icircumflex" unicode="&#xee;" horiz-adv-x="178" 
d="M75 0v530h28v-530h-28zM103 720l156 -108h-45l-125 86l-126 -86h-45l157 108h28z" />
    <glyph glyph-name="idieresis" unicode="&#xef;" horiz-adv-x="178" 
d="M75 0v530h28v-530h-28zM43 719v-116h-29v116h29zM164 719v-116h-29v116h29z" />
    <glyph glyph-name="eth" unicode="&#xf0;" horiz-adv-x="490" 
d="M233 651l-158 -61v25l139 53q-47 35 -99 58l26 14q50 -20 100 -61l159 61v-25l-139 -53q93 -78 149 -194q39 -78 39 -203q0 -122 -51 -200t-153 -78t-153.5 78t-51.5 200t51.5 200t153.5 78q45 0 78.5 -16.5t61.5 -61.5q-16 37 -55 85q-64 78 -97 101zM68 265v-1
q0 -116 45 -183.5t132 -67.5q86 0 131 67.5t45 184.5q0 47 -8.5 88.5t-27.5 80t-55 61t-85 22.5q-87 0 -132 -67.5t-45 -184.5z" />
    <glyph glyph-name="ntilde" unicode="&#xf1;" horiz-adv-x="495" 
d="M70 0v530h28q0 -73 -3 -116q22 67 71.5 98t101.5 31q75 0 118 -48t43 -149v-346h-28v337q0 25 -1.5 44.5t-9 46.5t-21 45t-39 31t-61.5 13q-80 0 -125.5 -58.5t-45.5 -170.5v-288h-28zM400 686l18 -15q-33 -40 -90 -40q-47 0 -83 13q-44 17 -78 17q-46 0 -75 -34l-20 16
q10 16 36 30t52 14q50 0 90 -14q46 -16 80 -16q38 0 70 29z" />
    <glyph glyph-name="ograve" unicode="&#xf2;" horiz-adv-x="489" 
d="M40 265v1q0 121 51.5 199t153.5 78t153 -78t51 -200t-51 -200t-153 -78t-153.5 78t-51.5 200zM68 265v-1q0 -116 45 -183.5t132 -67.5q86 0 131 67.5t45 184.5t-45 184.5t-131 67.5q-87 0 -132 -67.5t-45 -184.5zM144 746l217 -128l-13 -23l-218 128z" />
    <glyph glyph-name="oacute" unicode="&#xf3;" horiz-adv-x="489" 
d="M40 265v1q0 121 51.5 199t153.5 78t153 -78t51 -200t-51 -200t-153 -78t-153.5 78t-51.5 200zM68 265v-1q0 -116 45 -183.5t132 -67.5q86 0 131 67.5t45 184.5t-45 184.5t-131 67.5q-87 0 -132 -67.5t-45 -184.5zM130 618l217 128l14 -23l-218 -128z" />
    <glyph glyph-name="ocircumflex" unicode="&#xf4;" horiz-adv-x="489" 
d="M40 265v1q0 121 51.5 199t153.5 78t153 -78t51 -200t-51 -200t-153 -78t-153.5 78t-51.5 200zM68 265v-1q0 -116 45 -183.5t132 -67.5q86 0 131 67.5t45 184.5t-45 184.5t-131 67.5q-87 0 -132 -67.5t-45 -184.5zM259 720l156 -108h-45l-125 86l-126 -86h-45l157 108h28z
" />
    <glyph glyph-name="otilde" unicode="&#xf5;" horiz-adv-x="489" 
d="M40 265v1q0 121 51.5 199t153.5 78t153 -78t51 -200t-51 -200t-153 -78t-153.5 78t-51.5 200zM68 265v-1q0 -116 45 -183.5t132 -67.5q86 0 131 67.5t45 184.5t-45 184.5t-131 67.5q-87 0 -132 -67.5t-45 -184.5zM397 686l18 -15q-33 -40 -90 -40q-47 0 -83 13
q-44 17 -78 17q-46 0 -75 -34l-20 16q10 16 36 30t52 14q50 0 90 -14q46 -16 80 -16q38 0 70 29z" />
    <glyph glyph-name="odieresis" unicode="&#xf6;" horiz-adv-x="489" 
d="M40 265v1q0 121 51.5 199t153.5 78t153 -78t51 -200t-51 -200t-153 -78t-153.5 78t-51.5 200zM68 265v-1q0 -116 45 -183.5t132 -67.5q86 0 131 67.5t45 184.5t-45 184.5t-131 67.5q-87 0 -132 -67.5t-45 -184.5zM199 719v-116h-29v116h29zM320 719v-116h-29v116h29z" />
    <glyph glyph-name="divide" unicode="&#xf7;" 
d="M265 500v-81h-30v81h30zM25 236v28h450v-28h-450zM265 81v-81h-30v81h30z" />
    <glyph glyph-name="oslash" unicode="&#xf8;" horiz-adv-x="489" 
d="M490 555h30l-106 -120q35 -69 35 -170q0 -122 -51 -200t-153 -78q-105 0 -157 86l-89 -98h-30l107 119q-36 66 -36 171q0 122 51.5 200t153.5 78q105 0 157 -85zM95 116l288 320q-44 81 -138 81q-87 0 -132 -67.5t-45 -184.5q0 -91 27 -149zM394 413l-288 -320
q44 -80 139 -80q86 0 131 67.5t45 184.5q0 93 -27 148z" />
    <glyph glyph-name="ugrave" unicode="&#xf9;" horiz-adv-x="495" 
d="M425 530v-530h-28q0 73 3 116q-22 -67 -71.5 -98t-101.5 -31q-75 0 -118 48t-43 149v346h28v-337q0 -25 1.5 -44.5t9 -46.5t21 -45t39 -31t61.5 -13q80 0 125.5 58.5t45.5 170.5v288h28zM116 746l217 -128l-13 -23l-218 128z" />
    <glyph glyph-name="uacute" unicode="&#xfa;" horiz-adv-x="495" 
d="M425 530v-530h-28q0 73 3 116q-22 -67 -71.5 -98t-101.5 -31q-75 0 -118 48t-43 149v346h28v-337q0 -25 1.5 -44.5t9 -46.5t21 -45t39 -31t61.5 -13q80 0 125.5 58.5t45.5 170.5v288h28zM153 618l217 128l14 -23l-218 -128z" />
    <glyph glyph-name="ucircumflex" unicode="&#xfb;" horiz-adv-x="495" 
d="M425 530v-530h-28q0 73 3 116q-22 -67 -71.5 -98t-101.5 -31q-75 0 -118 48t-43 149v346h28v-337q0 -25 1.5 -44.5t9 -46.5t21 -45t39 -31t61.5 -13q80 0 125.5 58.5t45.5 170.5v288h28zM262 720l156 -108h-45l-125 86l-126 -86h-45l157 108h28z" />
    <glyph glyph-name="udieresis" unicode="&#xfc;" horiz-adv-x="495" 
d="M425 530v-530h-28q0 73 3 116q-22 -67 -71.5 -98t-101.5 -31q-75 0 -118 48t-43 149v346h28v-337q0 -25 1.5 -44.5t9 -46.5t21 -45t39 -31t61.5 -13q80 0 125.5 58.5t45.5 170.5v288h28zM202 719v-116h-29v116h29zM323 719v-116h-29v116h29z" />
    <glyph glyph-name="yacute" unicode="&#xfd;" horiz-adv-x="372" 
d="M95 -213l71 213l-159 530h29l144 -495l159 495h27l-244 -743h-27zM91 618l217 128l14 -23l-218 -128z" />
    <glyph glyph-name="thorn" unicode="&#xfe;" horiz-adv-x="484" 
d="M70 -213v953h28v-210q0 -29 -1.5 -70.5t-1.5 -57.5q48 141 164 141q83 0 134 -80.5t51 -198.5q0 -117 -51 -197t-134 -80q-58 0 -101.5 38t-62.5 103q0 -8 1.5 -49t1.5 -79v-213h-28zM416 265v1q0 100 -42 175.5t-117 75.5q-76 0 -119 -80q-40 -70 -40 -172
q0 -101 40 -172q43 -80 119 -80q51 0 88 38t54 94t17 120z" />
    <glyph glyph-name="ydieresis" unicode="&#xff;" horiz-adv-x="372" 
d="M95 -213l71 213l-159 530h29l144 -495l159 495h27l-244 -743h-27zM140 719v-116h-29v116h29zM261 719v-116h-29v116h29z" />
    <glyph glyph-name="dotlessi" unicode="&#x131;" horiz-adv-x="178" 
d="M75 0v530h28v-530h-28z" />
    <glyph glyph-name="Lslash" unicode="&#x141;" horiz-adv-x="370" 
d="M-11 280v35l81 60v365h30v-343l138 101v-35l-138 -104v-332h261v-27h-291v340z" />
    <glyph glyph-name="lslash" unicode="&#x142;" horiz-adv-x="178" 
d="M75 385l-80 -70v35l80 70v320h28v-292l80 70v-35l-80 -70v-413h-28v385z" />
    <glyph glyph-name="OE" unicode="&#x152;" horiz-adv-x="934" 
d="M574 713v-327h310v-27h-310v-332h310v-27h-340v91q0 17 1 50.5t2 50.5q-69 -205 -240 -205q-126 0 -196.5 109t-70.5 274t70.5 274t196.5 109q86 0 147 -54t93 -151q-1 17 -2 50.5t-1 50.5v91h340v-27h-310zM70 370v-1q0 -162 64.5 -258.5t172.5 -96.5t172.5 96.5
t64.5 259.5t-64.5 259.5t-172.5 96.5t-172.5 -96.5t-64.5 -259.5z" />
    <glyph glyph-name="oe" unicode="&#x153;" horiz-adv-x="846" 
d="M809 262h-360q0 -112 46.5 -180.5t128.5 -68.5q60 0 99.5 36.5t52.5 93.5h26q-14 -67 -59 -110q-49 -46 -119 -46q-75 0 -121.5 45.5t-66.5 119.5q-19 -76 -67.5 -120.5t-123.5 -44.5q-102 0 -153.5 78t-51.5 200t51.5 200t153.5 78q75 0 123.5 -44.5t67.5 -119.5
q22 78 70.5 121t113.5 43q85 0 135 -68q54 -72 54 -213zM68 265v-1q0 -116 45 -183.5t132 -67.5q86 0 131 67.5t45 184.5t-45 184.5t-131 67.5q-87 0 -132 -67.5t-45 -184.5zM449 288h332q-3 114 -48.5 171.5t-117.5 57.5t-118 -66.5t-48 -162.5z" />
    <glyph glyph-name="Scaron" unicode="&#x160;" horiz-adv-x="457" 
d="M37 187h27q9 -91 57.5 -132t98.5 -41q72 0 121.5 47.5t49.5 128.5q0 38 -12 68.5t-26.5 48t-41.5 32t-42.5 20.5t-44.5 14q-21 6 -27.5 8t-30 11.5t-34.5 17t-30 23t-28.5 32t-17 41t-7.5 53.5q-1 90 49 142t127 52q74 0 120.5 -42.5t56.5 -130.5h-27q-5 26 -12 47
t-23 46t-45 39t-70 14q-67 0 -106.5 -44t-39.5 -116q0 -41 11 -70t37.5 -48t52.5 -30t72 -24q22 -7 35.5 -11.5t42 -20.5t45.5 -35t31.5 -53.5t14.5 -77.5q0 -93 -57 -151t-140 -58q-71 0 -127 51t-60 149zM64 900h43l122 -85l121 85h43l-149 -105h-30z" />
    <glyph glyph-name="scaron" unicode="&#x161;" horiz-adv-x="379" 
d="M319 405h-26q0 112 -104 112q-42 0 -70 -29t-28 -74q0 -49 28.5 -77t82.5 -44q131 -39 131 -158q0 -66 -40 -107t-100 -41q-70 0 -108.5 42t-38.5 118h26q0 -66 32.5 -100t86.5 -34q52 0 83 32.5t31 85.5q0 56 -27 87.5t-86 50.5q-62 20 -95.5 51.5t-33.5 92.5
q0 59 37.5 94.5t89.5 35.5q59 0 94 -34.5t35 -103.5zM25 710h43l122 -85l121 85h43l-149 -105h-30z" />
    <glyph glyph-name="Ydieresis" unicode="&#x178;" horiz-adv-x="419" 
d="M195 0v253l-197 487h32l180 -456l179 456h32l-196 -487v-253h-30zM164 914v-116h-29v116h29zM285 914v-116h-29v116h29z" />
    <glyph glyph-name="Zcaron" unicode="&#x17d;" horiz-adv-x="478" 
d="M439 722l-371 -695h390v-27h-425v17l371 696h-384v27h419v-18zM64 890h43l122 -85l121 85h43l-149 -105h-30z" />
    <glyph glyph-name="zcaron" unicode="&#x17e;" horiz-adv-x="370" 
d="M15 0v24l293 480h-277v26h309v-27l-293 -477h308v-26h-340zM15 710h43l122 -85l121 85h43l-149 -105h-30z" />
    <glyph glyph-name="florin" unicode="&#x192;" 
d="M313 502h141v-27h-145l-94 -498q-15 -87 -42 -125q-43 -64 -141 -64q-33 0 -60 8l6 28q36 -9 54 -9q35 0 61.5 10.5t41 24.5t25.5 38.5t14.5 40t8.5 42.5l95 504h-144v27h148q21 119 45 164q16 31 35 47q50 40 110 40q15 0 27 -3l-6 -26q-14 2 -24 2q-59 -4 -90 -36
q-10 -9 -17.5 -20t-14 -27t-10.5 -26t-8.5 -31.5t-6 -27.5t-5.5 -30.5t-4 -25.5z" />
    <glyph glyph-name="circumflex" unicode="&#x2c6;" 
d="M264 720l156 -108h-45l-125 86l-126 -86h-45l157 108h28z" />
    <glyph glyph-name="caron" unicode="&#x2c7;" 
d="M85 710h43l122 -85l121 85h43l-149 -105h-30z" />
    <glyph glyph-name="uni02C9" unicode="&#x2c9;" 
d="M428 675v-30h-356v30h356z" />
    <glyph glyph-name="breve" unicode="&#x2d8;" 
d="M69 701h38q36 -53 143 -53q105 0 144 53h38q-49 -82 -182 -82q-135 0 -181 82z" />
    <glyph glyph-name="dotaccent" unicode="&#x2d9;" horiz-adv-x="245" 
d="M138 719v-116h-31v116h31z" />
    <glyph glyph-name="ring" unicode="&#x2da;" horiz-adv-x="250" 
d="M124 762h1q37 0 64 -27t27 -64q0 -38 -27 -64.5t-65 -26.5t-64.5 27t-26.5 64q0 38 27 64.5t64 26.5zM124 736h-1q-25 0 -43.5 -19t-18.5 -45t18.5 -44.5t44.5 -18.5q27 0 45.5 18.5t18.5 44.5t-18.5 45t-45.5 19z" />
    <glyph glyph-name="ogonek" unicode="&#x2db;" horiz-adv-x="179" 
d="M97 0h29q-52 -38 -69 -57t-17 -49q0 -31 21.5 -51t51.5 -20q23 0 56 13v-29q-24 -13 -56 -13q-47 0 -75.5 26.5t-28.5 70.5q0 70 88 109z" />
    <glyph glyph-name="tilde" unicode="&#x2dc;" 
d="M402 686l18 -15q-33 -40 -90 -40q-47 0 -83 13q-44 17 -78 17q-46 0 -75 -34l-20 16q10 16 36 30t52 14q50 0 90 -14q46 -16 80 -16q38 0 70 29z" />
    <glyph glyph-name="hungarumlaut" unicode="&#x2dd;" 
d="M89 613l186 128l16 -22l-186 -129zM225 613l186 128l16 -22l-186 -129z" />
    <glyph glyph-name="uni03A9" unicode="&#x3a9;" horiz-adv-x="657" 
d="M199 30v4q-59 60 -96 153t-37 205q0 167 76 262.5t190 95.5q113 0 186 -98.5t73 -257.5q0 -116 -39.5 -210.5t-95.5 -149.5v-4h146v-30h-202v23q67 56 112 154.5t45 211.5q0 75 -23.5 148.5t-77.5 128t-126 54.5q-104 0 -167.5 -94.5t-63.5 -235.5q0 -107 47 -211
t110 -156v-23h-202v30h145z" />
    <glyph glyph-name="uni03BC" unicode="&#x3bc;" 
d="M71 -181v711h28v-317q0 -60 6.5 -95.5t26.5 -62.5q31 -42 99 -42q81 0 127 61q24 32 34 73.5t10 117.5v265h28v-530h-28q0 22 1.5 63.5t1.5 52.5q-22 -68 -69 -98.5t-104 -30.5q-47 0 -85.5 21t-50.5 63q1 -40 3 -84v-168h-28z" />
    <glyph glyph-name="pi" unicode="&#x3c0;" horiz-adv-x="497" 
d="M468 515h-79v-365q0 -101 15 -150h-32q-15 26 -15 143v372h-192q-4 -128 -25.5 -288.5t-46.5 -226.5h-34q28 75 48 228t24 287q-75 0 -107 -13l-9 21q36 22 116 22h342z" />
    <glyph glyph-name="uni2010" unicode="&#x2010;" horiz-adv-x="220" 
d="M15 291h190v-29h-190v29z" />
    <glyph glyph-name="endash" unicode="&#x2013;" 
d="M35 291h430v-29h-430v29z" />
    <glyph glyph-name="emdash" unicode="&#x2014;" horiz-adv-x="1000" 
d="M35 291h930v-29h-930v29z" />
    <glyph glyph-name="quoteleft" unicode="&#x2018;" horiz-adv-x="277" 
d="M123 740l64 -154h-33l-64 154h33z" />
    <glyph glyph-name="quoteright" unicode="&#x2019;" horiz-adv-x="277" 
d="M90 586l64 154h33l-64 -154h-33z" />
    <glyph glyph-name="quotesinglbase" unicode="&#x201a;" horiz-adv-x="277" 
d="M90 -72l64 154h33l-64 -154h-33z" />
    <glyph glyph-name="quotedblleft" unicode="&#x201c;" horiz-adv-x="370" 
d="M125 740l64 -154h-33l-64 154h33zM214 740l64 -154h-33l-64 154h33z" />
    <glyph glyph-name="quotedblright" unicode="&#x201d;" horiz-adv-x="370" 
d="M92 586l64 154h33l-64 -154h-33zM181 586l64 154h33l-64 -154h-33z" />
    <glyph glyph-name="quotedblbase" unicode="&#x201e;" horiz-adv-x="370" 
d="M92 -72l64 154h33l-64 -154h-33zM181 -72l64 154h33l-64 -154h-33z" />
    <glyph glyph-name="dagger" unicode="&#x2020;" 
d="M264 740v-214h190v-30h-190v-596h-30v596h-188v30h188v214h30z" />
    <glyph glyph-name="daggerdbl" unicode="&#x2021;" 
d="M266 740v-185h188v-30h-188v-410h188v-30h-188v-185h-30v185h-190v30h190v410h-190v30h190v185h30z" />
    <glyph glyph-name="bullet" unicode="&#x2022;" horiz-adv-x="375" 
d="M188 458h1q36 0 61 -25t25 -60t-25 -60t-62 -25t-62.5 25t-25.5 60t25.5 60t62.5 25z" />
    <glyph glyph-name="ellipsis" unicode="&#x2026;" horiz-adv-x="1000" 
d="M152 0v82h30v-82h-30zM485 0v82h30v-82h-30zM818 0v82h30v-82h-30z" />
    <glyph glyph-name="perthousand" unicode="&#x2030;" horiz-adv-x="1094" 
d="M22 590v1q0 70 46.5 116t116.5 46q71 0 117 -46.5t46 -116.5t-46 -116.5t-117 -46.5t-117 46.5t-46 116.5zM50 590v-1q0 -60 37.5 -98.5t97.5 -38.5t97.5 39t37.5 99t-37.5 99t-97.5 39t-97.5 -39t-37.5 -99zM371 150v1q0 70 46.5 116t116.5 46t116.5 -46.5t46.5 -116.5
t-46.5 -116.5t-116.5 -46.5t-116.5 46.5t-46.5 116.5zM399 150v-1q0 -60 37.5 -98.5t97.5 -38.5t97.5 39t37.5 99t-37.5 99t-97.5 39t-97.5 -39t-37.5 -99zM746 150v1q0 70 46.5 116t116.5 46q71 0 117 -46.5t46 -116.5t-46 -116.5t-117 -46.5t-117 46.5t-46 116.5zM774 150
v-1q0 -60 37.5 -98.5t97.5 -38.5t97.5 39t37.5 99t-37.5 99t-97.5 39t-97.5 -39t-37.5 -99zM603 740l-457 -740h-32l457 740h32z" />
    <glyph glyph-name="guilsinglleft" unicode="&#x2039;" horiz-adv-x="248" 
d="M50 275l114 194h35l-114 -194l114 -191h-35z" />
    <glyph glyph-name="guilsinglright" unicode="&#x203a;" horiz-adv-x="248" 
d="M84 469l114 -194l-114 -191h-35l114 191l-114 194h35z" />
    <glyph glyph-name="fraction" unicode="&#x2044;" horiz-adv-x="81" 
d="M-139 0l329 740h30l-330 -740h-29z" />
    <glyph glyph-name="Euro" unicode="&#x20ac;" 
d="M367 326l-6 -26h-252q9 -144 57.5 -215t124.5 -71q116 0 149 145h27q-16 -79 -61 -125.5t-115 -46.5q-92 0 -146 81t-65 232h-67l6 26h60q-1 14 -1 44q0 34 1 50h-66l6 26h62q11 143 63 225t147 82q68 0 115 -49.5t61 -144.5h-27q-7 33 -16 59t-25.5 52.5t-44 41
t-63.5 14.5q-160 0 -181 -280h281l-6 -26h-277q-1 -20 -1 -61q0 -5 0.5 -16t0.5 -17h259z" />
    <glyph glyph-name="afii61289" unicode="&#x2113;" horiz-adv-x="429" 
d="M380 116l23 -14q-56 -109 -155 -109q-74 0 -108 59.5t-34 158.5v17q-8 -8 -17 -16.5t-20 -19t-18 -16.5l-17 24q56 54 72 72v301q0 133 36.5 187t87.5 54q49 0 76 -42t27 -111q0 -186 -196 -400v-30q0 -111 31.5 -160.5t82.5 -49.5q44 0 77 28.5t52 66.5zM137 585v-280
q79 93 122.5 178t43.5 174q0 126 -77 126q-35 0 -62 -49.5t-27 -148.5z" />
    <glyph glyph-name="trademark" unicode="&#x2122;" horiz-adv-x="910" 
d="M365 296v444h37l208 -402l209 402h36v-444h-27v405l-210 -405h-16l-210 404v-404h-27zM155 296v420h-124v24h276v-24h-125v-420h-27z" />
    <glyph glyph-name="Omega" unicode="&#x2126;" horiz-adv-x="657" 
d="M199 30v4q-59 60 -96 153t-37 205q0 167 76 262.5t190 95.5q113 0 186 -98.5t73 -257.5q0 -116 -39.5 -210.5t-95.5 -149.5v-4h146v-30h-202v23q67 56 112 154.5t45 211.5q0 75 -23.5 148.5t-77.5 128t-126 54.5q-104 0 -167.5 -94.5t-63.5 -235.5q0 -107 47 -211
t110 -156v-23h-202v30h145z" />
    <glyph glyph-name="estimated" unicode="&#x212e;" horiz-adv-x="924" 
d="M887 359h-689q-6 0 -6 -4v-209q0 -11 9 -24q110 -113 261 -113q163 0 274 127h61q-58 -68 -146.5 -108t-189.5 -40q-176 0 -300.5 112t-124.5 270t124.5 270t300.5 112t301 -112t125 -270v-11zM730 386v210q0 15 -10 25q-111 109 -258 109q-150 0 -260 -112
q-10 -12 -10 -26v-206q0 -6 6 -6h528q4 0 4 6z" />
    <glyph glyph-name="partialdiff" unicode="&#x2202;" horiz-adv-x="480" 
d="M93 745l-18 24q59 55 140 55q90 0 154 -98t64 -296q0 -200 -58.5 -319t-166.5 -119q-79 0 -122 64.5t-43 170.5q0 117 59 193t137 76q59 0 100.5 -32.5t59.5 -68.5h1q1 13 1 47q0 160 -55 256t-131 96q-71 0 -122 -49zM209 21h2q73 0 122.5 89t60.5 230q-16 50 -57 88
t-96 38q-66 0 -115 -68t-49 -166t36 -154.5t96 -56.5z" />
    <glyph glyph-name="uni2206" unicode="&#x2206;" horiz-adv-x="580" 
d="M34 0v31l240 729h33l241 -729v-31h-514zM66 29h445l-157 486q-7 23 -32 92t-32 99h-4q-5 -28 -29.5 -98t-27.5 -80z" />
    <glyph glyph-name="product" unicode="&#x220f;" horiz-adv-x="618" 
d="M591 707h-102v-809h-31v809h-299v-809h-32v809h-101v31h565v-31z" />
    <glyph glyph-name="summation" unicode="&#x2211;" horiz-adv-x="505" 
d="M482 -102h-460v26l266 391l-252 400v23h429v-30h-381v-4l243 -386l-259 -383v-4h414v-33z" />
    <glyph glyph-name="minus" unicode="&#x2212;" 
d="M25 236v28h450v-28h-450z" />
    <glyph glyph-name="uni2215" unicode="&#x2215;" horiz-adv-x="81" 
d="M-139 0l329 740h30l-330 -740h-29z" />
    <glyph glyph-name="uni2219" unicode="&#x2219;" horiz-adv-x="245" 
d="M138 296v-81h-30v81h30z" />
    <glyph glyph-name="radical" unicode="&#x221a;" horiz-adv-x="520" 
d="M510 872l-203 -1041h-36l-160 516l-68 -25l-10 25l103 38l135 -426q11 -42 16 -72h1q1 9 5 32t5 32l183 921h29z" />
    <glyph glyph-name="infinity" unicode="&#x221e;" horiz-adv-x="734" 
d="M686 310v-1q0 -61 -41.5 -101t-98.5 -40q-43 0 -80 26.5t-98 89.5q-61 -65 -89 -84q-46 -32 -94 -32q-57 0 -96.5 40.5t-39.5 97.5q0 60 40 100.5t102 40.5q34 0 69.5 -20t56.5 -40.5t55 -58.5q30 33 43 46.5t38.5 34.5t49 29.5t51.5 8.5q61 0 96.5 -38t35.5 -99z
M190 197h1q19 0 37 6.5t37 21t30 24t31 31t25 26.5q-33 38 -49.5 55.5t-51 38t-68.5 20.5q-46 0 -73.5 -34t-26.5 -81t30.5 -77.5t77.5 -30.5zM550 420h-1q-24 0 -50 -14t-41.5 -28t-39.5 -39.5t-30 -30.5q46 -46 63 -62t45 -32.5t54 -16.5q47 0 75 32.5t28 77.5
q0 54 -29 83.5t-74 29.5z" />
    <glyph glyph-name="integral" unicode="&#x222b;" horiz-adv-x="309" 
d="M297 879l-12 -24q-14 10 -34 10q-29 0 -48 -25q-20 -25 -28 -68.5t-8 -128.5q0 -80 5.5 -276.5t5.5 -275.5q0 -152 -46 -215q-28 -36 -72 -36q-30 0 -51 16l11 26q24 -12 42 -12q28 0 47 29q36 51 36 195q0 79 -5.5 277t-5.5 276q0 159 45 211q31 36 73 36q26 0 45 -15z
" />
    <glyph glyph-name="approxequal" unicode="&#x2248;" horiz-adv-x="529" 
d="M462 426l20 -16q-40 -87 -116 -87q-5 0 -11 0.5t-10.5 1t-10.5 3t-9.5 3t-11 4t-10 4.5t-11.5 6t-11.5 6t-12.5 7t-13 7q-60 33 -91 33q-55 0 -97 -74l-22 14q43 88 124 88q21 0 39.5 -6t43.5 -21l26 -15q3 -2 15 -8.5t15.5 -8t13.5 -6t16 -6t15 -3t18 -1.5q28 0 49 18
t42 57zM462 277l20 -15q-41 -87 -115 -87q-18 0 -37.5 6t-31.5 12.5t-43 23.5q-62 32 -91 32q-55 0 -97 -74l-22 14q43 89 124 89q16 0 34 -5t27.5 -10t27 -15t20.5 -12q59 -33 93 -33q28 0 49 17.5t42 56.5z" />
    <glyph glyph-name="notequal" unicode="&#x2260;" horiz-adv-x="529" 
d="M366 499l-45 -98h157v-29h-170l-68 -144h238v-29h-251l-52 -111l-23 13l45 98h-147v29h162l66 144h-228v29h241l51 111z" />
    <glyph glyph-name="lessequal" unicode="&#x2264;" horiz-adv-x="529" 
d="M476 118l-421 220v28l421 220v-37l-384 -195v-2l384 -197v-37zM477 44h-428v31h428v-31z" />
    <glyph glyph-name="greaterequal" unicode="&#x2265;" horiz-adv-x="529" 
d="M55 586l421 -220v-28l-421 -220v37l383 195v3l-383 196v37zM477 44h-427v31h427v-31z" />
    <glyph glyph-name="lozenge" unicode="&#x25ca;" horiz-adv-x="521" 
d="M466 369l-192 -404h-28l-192 404l192 405h28zM432 368l-155 323q-11 25 -17 49h-2q-10 -31 -18 -49l-152 -321l155 -323q9 -20 17 -48h2q9 29 17 48z" />
    <glyph glyph-name="fi" unicode="&#xfb01;" horiz-adv-x="355" 
d="M257 504h-142v-504h-28v504h-67v26h67v51q0 48 14 83t31 51.5t40 26t33 10.5t17 1v-26q-107 -9 -107 -147v-50h170v-530h-28v504zM285 649h-28v91h28v-91z" />
    <glyph glyph-name="fl" unicode="&#xfb02;" horiz-adv-x="355" 
d="M257 504h-142v-504h-28v504h-67v26h67v51q0 48 14 83t31 51.5t40 26t33 10.5t17 1v-26q-107 -9 -107 -147v-50h142v210h28v-740h-28v504z" />
    <glyph glyph-name="a.superior" horiz-adv-x="300" 
d="M265 745v-318h-26q0 61 2 87q-13 -46 -41 -70.5t-66 -24.5q-53 0 -86.5 48.5t-33.5 117.5q0 71 33 119.5t87 48.5q77 0 107 -95q-2 32 -2 87h26zM40 586v-1q0 -31 8 -61t31 -54.5t56 -24.5q66 0 88 90q6 29 6 55t-7 50q-10 38 -33 62.5t-58 24.5q-43 0 -67 -43.5
t-24 -97.5z" />
    <glyph glyph-name="o.superior" horiz-adv-x="300" 
d="M17 586v1q0 73 32.5 119.5t100.5 46.5t100.5 -47t32.5 -120q0 -74 -32.5 -120.5t-100.5 -46.5t-100.5 46.5t-32.5 120.5zM43 586v-1q0 -66 27 -103t80 -37t80 37t27 104q0 70 -26 106t-81 35q-55 1 -81 -35t-26 -106z" />
    <glyph glyph-name="one.superior" horiz-adv-x="250" 
d="M147 740v-444h-28v419h-75v25h103z" />
    <glyph glyph-name="two.superior" horiz-adv-x="351" 
d="M291 321v-25h-251v23q57 65 171 193q49 57 49 108q0 41 -22 72t-70 31q-43 0 -68.5 -33t-25.5 -90h-28q0 53 22 90q34 58 102 58q53 0 85.5 -35.5t32.5 -96.5q0 -53 -59 -122q-51 -57 -153 -173h215z" />
    <glyph glyph-name="three.superior" horiz-adv-x="350" 
d="M36 430h28q1 -60 32.5 -88.5t68.5 -28.5q46 0 73.5 31.5t27.5 80.5q0 42 -27 77t-81 35h-25v25h25q27 0 45.5 10t25.5 25.5t9 25.5t2 19q0 33 -19.5 56.5t-50.5 24.5q-32 1 -52.5 -22t-21.5 -59h-28q2 53 33 79.5t69 26.5q39 0 68.5 -29.5t29.5 -75.5q0 -62 -53 -92
q35 -15 57 -49t22 -75q0 -61 -36.5 -100t-92.5 -39q-72 0 -108 61q-21 34 -21 81z" />
    </font>
</defs>
</svg>
